<?xml version="1.0" standalone="no"?>
<!DOCTYPE svg PUBLIC "-//W3C//DTD SVG 1.1//EN" "http://www.w3.org/Graphics/SVG/1.1/DTD/svg11.dtd" >
<!--
2013-9-30: Created.
-->
<svg>
<metadata>
Created by iconfont
</metadata>
<defs>

<font id="iconfont" horiz-adv-x="1024" >
  <font-face
    font-family="iconfont"
    font-weight="500"
    font-stretch="normal"
    units-per-em="1024"
    ascent="896"
    descent="-128"
  />
    <missing-glyph />
    
    <glyph glyph-name="xinzeng" unicode="&#58952;" d="M851.26174472 48.09395976999997L764.01342266 48.09395976999997 764.01342266-39.1543623C764.01342266-53.61006738000003 752.29463076-65.32885926999995 737.83892656-65.32885926999995 723.38322148-65.32885926999995 711.66442959-53.61006738000003 711.66442959-39.1543623L711.66442959 48.09395976999997 624.41610752 48.09395976999997C609.96040244 48.09395976999997 598.24161055 59.81275166 598.24161055 74.26845674000003 598.24161055 88.72416094000005 609.96040244 100.44295282999997 624.41610752 100.44295282999997L711.66442959 100.44295282999997 711.66442959 187.69127490000005C711.66442959 202.14697997999997 723.38322148 213.86577188 737.83892656 213.86577188 752.29463076 213.86577188 764.01342266 202.14697997999997 764.01342266 187.69127490000005L764.01342266 100.44295282999997 851.26174472 100.44295282999997C865.71744981 100.44295282999997 877.4362417 88.72416094000005 877.4362417 74.26845674000003 877.4362417 59.81275166 865.71744981 48.09395976999997 851.26174472 48.09395976999997ZM737.83892656 270.57718095999996C723.38322148 270.57718095999996 711.66442959 282.29597285 711.66442959 296.75167792L711.66442959 780.97986622 426.75671182 780.97986622C426.75805391 780.86778545 426.76510097 780.75671104 426.76510097 780.64429541L426.76510097 577.95973125C426.76510097 563.50402705 415.04630908 551.78523516 400.59060401 551.78523516L198.91275137 551.78523516 198.91275137 99.10067138 514.68456377 99.10067138C529.14026885 99.10067138 540.85906074 87.38187949999997 540.85906074 72.92617441000004 540.85906074 58.47047021000003 529.14026885 46.75167743999998 514.68456377 46.75167743999998L172.73825528 46.75167743999998C158.28255019 46.75167743999998 146.5637583 58.47047021000003 146.5637583 72.92617441000004L146.5637583 621.24832237C146.5637583 625.3362419 147.50201357 629.20469766 149.17349023 632.65167744 149.80771777 634.64093935 150.83859043 636.43389229 152.29664404 637.9281876L334.32986621 824.47449668C334.91174521 825.1328862299999 335.52483242 825.76275175 336.16912783 826.35939638L338.24093925 828.48255C340.69664463 830.99932881 344.02281875 832.33758398 347.75067148 832.58456367 349.73758408 833.06711396 351.81107422 833.32885927 353.9463084 833.32885927L737.83892656 833.32885927C752.29463076 833.32885927 764.01342266 821.61006738 764.01342266 807.1543623L764.01342266 296.75167792C764.01342266 282.29597285 752.29463076 270.57718095999996 737.83892656 270.57718095999996ZM365.02986553 780.97986622L198.91275137 610.7439600600001 198.91275137 604.13422823 374.41610703 604.13422823 374.41610703 780.64429541C374.41610703 780.75671104 374.4231541 780.86778545 374.42449708 780.97986622L365.02986553 780.97986622Z"  horiz-adv-x="1024" />

    
    <glyph glyph-name="zhongzhimima" unicode="&#58890;" d="M636.172598 448.069989c37.402156 0 67.701422-33.050836 67.701422-73.844462l0-172.261084c0-40.761631-30.299266-73.812467-67.701422-73.812467l-248.217216 0c-37.370161 0-67.701422 33.050836-67.701422 73.812467l0 172.261084c0 40.761631 30.299266 73.844462 67.701422 73.844462L448.009998 448.069989l0 0 127.980003 0 0 0L636.172598 448.069989zM511.520075 383.760037c-35.322481 0-63.990002-27.387721-63.990002-61.206436 0-22.588471 17.53326-39.865771 36.602281-50.488111l0-79.539572 54.807436 0 0 79.539572c19.06902 10.62234 36.602281 27.899641 36.602281 50.488111C575.510077 356.372317 546.842556 383.760037 511.520075 383.760037zM512 575.890017c-60.150601 0-63.830027-50.584096-63.990002-63.990002l0-63.798032-64.405937 0 0 57.622996c0 0 0.031995 134.379003 128.139978 134.379003 128.139978 0 128.139978-134.379003 128.139978-134.379003l0-57.622996L575.990002 448.101984l0 63.798032C575.862022 525.081956 572.150601 575.890017 512 575.890017zM512-128c-282.739822 0-511.920012 229.180191-511.920012 511.920012s229.180191 511.920012 511.920012 511.920012c91.121762 0 176.612404-23.964256 250.712826-65.717732l47.608561 65.877707L895.556069 671.93901l-223.453085 32.794876 52.759756 73.012592C661.512639 812.077113 589.107952 831.818028 512 831.818028c-247.385346 0-447.930011-200.544665-447.930011-447.930011s200.544665-447.930011 447.930011-447.930011 447.930011 200.544665 447.930011 447.930011c0 60.406561-12.126105 117.933573-33.786721 170.533354l59.158756 24.348196C1010.066177 518.682956 1023.920012 452.933229 1023.920012 383.888017 1023.920012 101.180191 794.739822-128 512-128z"  horiz-adv-x="1024" />

    
    <glyph glyph-name="fullscreen" unicode="&#58911;" d="M918.116352 788.590592c10.186752-10.175488 10.186752-26.691584 0-36.87936L653.734912 488.961024c-10.187776-10.187776-26.703872-10.187776-36.891648 0-10.175488 10.187776-10.175488 26.703872 0.013312 36.891648l264.38144 262.73792c10.174464 10.187776 26.69056 10.200064 36.87936 0.013312L918.117376 788.590592zM878.281728 747.904l-161.155072 0.44544c-11.283456-0.279552-20.85888 8.226816-21.90336 19.458048l0 13.421568c0.318464 10.671104 8.889344 19.241984 19.560448 19.560448l187.030528-0.827392c0.1792 0.037888 0.357376 0.0768 0.523264 0.089088l9.549824 0.229376c5.005312 0.152576 9.843712-1.770496 13.372416-5.336064 3.32288-3.629056 4.9664-8.49408 4.545536-13.40928l-1.032192-9.537536c0-0.191488 0.70144-0.318464 0.70144-0.49664l-0.534528-188.279808c-0.54784-9.984-9.092096-17.637376-19.076096-17.089536-0.165888 0.012288-0.319488 0.0256-0.484352 0.037888L896.009216 566.1696c-10.379264 0.0512-18.733056 8.506368-18.681856 18.885632 0.013312 0.191488 0.013312 0.381952 0.013312 0.585728L878.281728 747.904zM105.884672-20.661248c-10.187776 10.175488-10.200064 26.691584-0.013312 36.87936 0 0 0 0.013312 0.013312 0.013312l265.19552 262.73792c10.35264 10.008576 26.86976 9.729024 36.866048-0.636928 9.766912-10.110976 9.766912-26.131456 0-36.242432L143.579136-20.661248C133.072896-30.848 116.3776-30.848 105.884672-20.661248L105.884672-20.661248zM146.533376 20.026368l161.154048-0.433152c11.283456 0.292864 20.85888-8.213504 21.891072-19.458048l0-13.38368c-0.292864-10.672128-8.876032-19.255296-19.560448-19.561472l-187.858944 0.828416c-0.165888-0.037888-0.344064-0.075776-0.509952-0.089088l-9.550848-0.229376c-5.004288-0.152576-9.831424 1.782784-13.35808 5.336064-3.323904 3.629056-4.979712 8.493056-4.54656 13.395968l1.031168 9.537536c0 0.191488-0.712704 0.330752-0.700416 0.509952l0.534528 188.278784c0.534528 9.984 9.066496 17.625088 19.050496 17.089536 0.165888-0.013312 0.330752-0.0256 0.508928-0.037888l14.212096 0c10.365952-0.0512 18.719744-8.507392 18.656256-18.873344 0-0.191488 0-0.395264-0.013312-0.598016L146.533376 20.026368zM918.116352-20.661248c10.186752 10.175488 10.200064 26.691584 0.012288 36.87936 0 0 0 0.013312-0.012288 0.013312l-264.38144 262.73792c-10.365952 10.008576-26.86976 9.729024-36.87936-0.636928-9.766912-10.110976-9.766912-26.131456 0-36.242432L881.22368-20.661248c10.186752-10.186752 26.703872-10.186752 36.891648-0.013312L918.115328-20.661248 918.116352-20.661248zM878.281728 20.026368l-161.168384-0.433152c-11.270144 0.292864-20.845568-8.213504-21.890048-19.458048l0-13.38368c0.306176-10.672128 8.889344-19.241984 19.560448-19.561472l187.030528 0.828416c0.1792-0.037888 0.357376-0.075776 0.523264-0.089088l9.549824-0.229376c5.005312-0.152576 9.843712 1.782784 13.372416 5.336064 3.32288 3.629056 4.978688 8.493056 4.545536 13.395968l-1.032192 9.537536c0 0.191488 0.70144 0.330752 0.70144 0.509952l-0.534528 188.278784c-0.54784 9.984-9.092096 17.637376-19.076096 17.089536-0.165888-0.013312-0.319488-0.0256-0.484352-0.037888L896.009216 201.80992c-10.379264-0.0512-18.733056-8.507392-18.681856-18.885632 0-0.191488 0.013312-0.381952 0.013312-0.584704L878.281728 20.026368zM105.884672 788.590592c-10.187776-10.175488-10.187776-26.691584 0-36.87936l265.19552-262.750208c10.187776-10.187776 26.691584-10.187776 36.87936 0s10.175488 26.703872-0.012288 36.891648l-264.368128 262.73792C133.072896 798.777344 116.3776 798.777344 105.884672 788.590592L105.884672 788.590592zM146.533376 747.904l161.154048 0.44544c11.283456-0.292864 20.85888 8.213504 21.891072 19.458048l0 13.421568c-0.306176 10.671104-8.889344 19.241984-19.560448 19.560448l-187.858944-0.827392c-0.165888 0.0512-0.344064 0.0768-0.509952 0.089088l-9.550848 0.229376c-5.004288 0.152576-9.831424-1.782784-13.35808-5.336064-3.323904-3.629056-4.979712-8.49408-4.54656-13.40928l1.031168-9.537536c0-0.191488-0.712704-0.318464-0.700416-0.49664l0.534528-188.279808c0.534528-9.970688 9.066496-17.624064 19.050496-17.089536 0.165888 0.012288 0.330752 0.0256 0.508928 0.037888l14.212096 0c10.365952 0.0512 18.719744 8.506368 18.656256 18.87232 0 0.191488 0 0.395264-0.013312 0.598016L146.533376 747.904z"  horiz-adv-x="1024" />

    
    <glyph glyph-name="ai-user" unicode="&#58892;" d="M983.605 76.362c3.383-10.148 5.97-23.282 7.562-39.201 1.592-15.919 2.388-3.184 2.388-19.103 0-15.919-1.194-31.042-3.383-45.37-2.388-14.327-5.97-25.073-10.546-32.435-3.383-4.776-13.133-9.75-29.052-15.322-15.919-5.572-182.075-52.931-415.689-52.931-213.516 0-397.382 34.624-426.634 41.191-29.251 6.567-46.763 12.138-52.931 16.715-7.562 5.572-13.133 22.088-16.715 49.747-3.582 27.859-2.189 34.823 4.577 78.203 4.179 25.073 14.327 44.176 30.445 56.911 16.317 12.934 35.619 23.083 57.508 30.445 22.088 7.562 124.368 42.783 147.849 48.951 23.481 6.169 43.977 14.924 61.488 26.466 14.327 8.756 25.272 17.312 33.032 25.471 7.761 8.159 13.332 16.317 16.317 24.476 2.985 8.159 4.577 16.516 4.577 25.471 0 8.756-0.398 18.307-0.995 28.654-1.393 16.317-6.567 28.853-15.72 37.609-9.154 8.756-19.302 17.909-31.042 27.461-5.572 4.776-10.148 11.342-14.327 19.899-4.179 8.557-7.761 17.113-11.143 25.869-3.383 10.148-6.766 20.695-10.148 31.44-4.776 1.393-9.551 3.582-14.327 7.164-4.179 3.383-8.557 8.159-13.332 14.327-4.776 6.169-8.756 14.924-12.337 26.466-3.383 11.342-4.577 21.889-3.383 31.042 0.995 9.154 2.786 17.113 5.572 23.879 2.587 7.562 6.766 14.526 12.337 21.491-0.597 25.67 0.597 51.538 4.179 77.407 2.587 21.69 7.562 44.773 14.725 69.248s17.511 46.564 31.042 66.065c12.934 18.307 27.262 33.43 43.181 45.37 15.919 11.939 32.037 21.292 48.354 28.058 16.317 6.766 32.634 11.342 49.349 14.327 16.516 2.587 32.634 4.179 48.354 4.179 19.501 0 38.604-2.388 56.513-7.164 17.909-4.776 34.624-10.745 50.344-18.307 15.521-7.562 29.649-15.72 41.589-24.874 12.337-9.154 22.088-18.506 29.649-28.058 16.914-21.69 29.649-45.569 38.206-71.636 8.557-26.068 14.526-50.543 17.71-73.626 4.179-27.063 5.771-54.324 5.174-81.387 4.776-2.587 8.557-6.766 11.143-12.337 2.587-4.776 4.975-10.745 6.567-18.307 1.592-7.562 1.791-16.516 0.398-27.461-1.99-14.327-5.373-25.471-9.551-34.027-4.577-8.557-9.353-15.123-14.725-19.899-6.169-5.572-12.536-9.154-19.302-11.143-2.587-10.745-5.771-21.491-9.154-31.44-3.383-8.756-7.363-17.511-11.541-25.869-4.577-8.557-9.353-15.123-14.725-19.899-6.169-5.572-11.74-9.949-17.312-13.73-5.572-3.582-10.148-7.562-14.327-11.541-4.179-4.179-7.562-8.955-10.148-14.725-2.587-5.771-4.776-12.735-6.169-20.894-1.99-10.148-2.587-20.496-1.99-31.042 0.597-10.347 3.383-21.093 8.159-31.44 4.776-10.347 12.536-20.496 23.481-30.047 10.745-9.551 25.471-17.909 43.778-25.471 16.914-6.766 35.619-12.735 55.518-17.71 20.098-5.174 100.689-39.798 119.195-46.962 18.506-7.164 35.221-16.118 49.747-26.864 14.128-11.939 24.476-26.068 30.644-43.778v0zM531.501-61.935c3.383 0 8.557 2.189 15.72 6.567 7.164 4.577 14.128 9.551 20.894 15.72 6.766 6.169 12.735 12.337 17.71 18.307 5.174 6.169 7.562 10.745 7.562 14.327 0 4.179-0.995 11.143-2.985 21.491-1.99 10.148-4.577 21.491-7.164 33.43-2.587 12.337-5.572 24.277-8.159 36.216-2.587 11.939-5.174 21.491-7.164 29.052 6.766 5.572 12.536 11.342 17.312 17.71 4.776 6.567 7.164 13.133 7.164 19.899 0 5.572-1.791 10.944-5.572 16.715-3.582 5.771-7.96 10.546-12.735 14.725-5.572 4.776-11.143 9.551-17.312 14.327h-50.742c-6.766-4.776-12.536-9.551-17.312-14.327-4.179-4.179-7.761-8.756-11.143-14.327-3.383-5.572-5.174-10.745-5.174-16.317 0-4.179 2.388-9.551 7.562-16.317 5.174-6.766 11.342-13.332 18.705-19.302-1.99-6.169-4.776-14.924-8.159-26.466-3.383-11.342-6.567-23.481-9.551-36.216-2.985-12.536-5.771-24.476-8.159-35.619-2.388-11.143-3.383-19.302-3.383-24.874 0-3.383 2.388-8.159 7.562-14.327 5.174-6.169 11.143-12.337 18.307-18.307 7.164-6.169 14.128-11.342 20.894-15.72 6.965-3.98 12.138-6.368 15.322-6.368v0z"  horiz-adv-x="1024" />

    
    <glyph glyph-name="password" unicode="&#58954;" d="M255.128143 476.937692l7.007601 0L262.135744 580.7561989999999c0 69.01791 28.340465 131.86733 73.798796 177.325661l2.245134 1.679245c45.439912 44.892443 107.741863 72.393797 175.62902 72.393797 69.036329 0 131.612527-28.623921 177.345104-74.073042 45.438888-45.458331 73.507154-108.307751 73.507154-177.325661l0-103.818507 7.299243 0c26.370601 0 50.496068-10.101055 67.339688-28.058033 17.391089-16.83441 28.0478-40.958854 28.0478-67.89432l0-349.6054c0-26.378787-10.656711-49.938366-28.0478-67.896366l-2.811022-2.243087c-17.118889-16.278755-39.85573-25.257244-64.528666-25.257244l-516.831029 0c-26.369577 0-49.947576 10.656711-67.338664 27.500331-17.391089 17.958-28.340465 41.516556-28.340465 67.896366L159.450037 380.98533999999995c0 26.935466 10.949376 51.059909 28.340465 67.89432l0 0C205.180568 466.83766 228.758566 476.937692 255.128143 476.937692L255.128143 476.937692zM512.695337 192.99273500000004L512.695337 192.99273500000004l1.113357 0 1.130753 0c12.902868 0.556679 24.125467 6.1777 32.556487 14.024411 8.4126 8.978489 14.015202 20.767999 14.015202 34.235732 0 12.900821-5.603625 25.257244-14.015202 33.668821-8.704243 8.977465-20.766976 14.5903-33.688263 14.5903-13.468756 0-25.239847-5.611811-34.217313-14.5903-8.705266-8.4126-14.033621-20.767999-14.033621-33.668821 0-13.467733 5.328355-25.257244 14.033621-34.235732C488.002958 199.170434 499.22658 193.54941299999996 512.695337 192.99273500000004L512.695337 192.99273500000004zM537.094026 149.22183600000005L537.094026 149.22183600000005l0-49.381687c0-12.901845-10.365068-23.568788-23.286356-23.568788-13.468756 0-24.12649 10.666944-24.12649 23.568788l0 49.381687c-16.825201 3.924379-31.972179 12.902868-43.760666 24.692379-17.117866 17.390066-28.067242 41.524742-28.067242 67.338664 0 25.812899 10.949376 50.504254 28.067242 67.338664 17.391089 17.390066 41.516556 28.058033 67.887157 28.058033 26.38902 0 49.674353-10.667967 67.339688-28.058033 17.117866-16.83441 28.067242-41.525766 28.067242-67.338664 0-25.813922-10.949376-49.948599-28.067242-67.338664C569.376267 162.12572699999998 554.212916 153.14621499999998 537.094026 149.22183600000005L537.094026 149.22183600000005zM341.262896 476.937692L341.262896 476.937692l344.268858 0L685.531753 580.7561989999999c0 47.136553-19.360953 89.784886-50.512441 121.766274-31.134091 30.302143-74.054623 49.937342-121.210619 49.937342-46.571688 0-89.220021-17.955954-120.078843-48.248887l-1.679245-1.688455c-31.42471-31.981389-50.786687-74.629721-50.786687-121.766274L341.263919 476.937692 341.262896 476.937692zM771.959172 398.375405L771.959172 398.375405l-45.731554 0-1.131777 0-0.838088 0L302.538943 398.375405l-0.839111 0-0.839111 0-45.731554 0c-4.489244 0-8.4126-2.243087-11.789511-5.054109l0 0c-2.809999-2.800789-4.488221-7.290033-4.488221-12.335956l0-349.6054c0-3.933589 1.679245-8.42181 4.488221-11.223622 3.375887-3.366677 7.866155-5.045923 11.789511-5.045923l516.831029 0c3.923356 0 7.280824 1.679245 10.656711 3.357468l1.113357 1.687432c2.811022 2.800789 5.055133 7.290033 5.055133 11.223622L788.785396 380.98533999999995c0 5.045923-2.24411 9.534144-5.055133 12.335956C780.371772 396.131295 776.448416 398.375405 771.959172 398.375405L771.959172 398.375405z"  horiz-adv-x="1024" />

    
    <glyph glyph-name="login" unicode="&#58957;" d="M839.361281 115.20509100000004c-49.341778 47.387263-118.219495 67.911716-159.004387 71.819722-8.061606 0.964978-15.876596 3.906983-20.750603 8.779967-3.434216 3.908006-5.882987 8.31027-6.601348 12.712533 31.508621 26.365484 45.903469 62.028729 57.874105 92.797499 6.109138 15.136745 11.475356 27.845185 15.158235 31.259958l0 0.494257 0.471744 0.493234 0.49528 0.471744c14.661931 12.710486 34.673707 38.110993 45.430702 66.429968 10.733459 28.835745 13.18223 61.555961-5.390777 90.865497 5.885034 20.502963 10.261715 41.523719 12.71151 60.567447 3.412726 24.90625 3.412726 48.351218-0.49528 70.832232-4.624321 30.272467-26.365484 81.566714-56.659441 116.735701-24.659633 29.30749-56.167231 49.340755-92.324732 46.39875-17.561981 24.433482-46.397726 36.156478-76.918857 41.524742-26.613124 5.368264-53.968146 4.874007-74.000388 4.40124-53.741995-0.988514-101.598956-13.204743-140.181693-39.570227-36.156478-23.940249-64.49899-59.603493-81.09497-108.448968l-1.460258-2.919493c-11.722996-34.675754-17.584494-72.29249-17.11275-109.909226 0-29.30749 4.402263-57.626465 12.95915-83.521229-16.125259-28.340465-13.430894-59.108213-2.695389-87.428212 10.510378-28.340465 30.79026-53.247738 45.185108-66.429968l0.24764 0 0.246617-0.493234 0.741897 0c2.919493-3.90903 8.286734-16.617469 14.643512-31.754215 12.216229-30.767747 27.352975-67.396993 59.603493-94.28027-0.988514-3.908006-2.942005-7.814989-6.109138-11.229762-5.142114-4.872984-12.464893-7.814989-20.773116-8.779967-41.031509-3.906983-109.88569-24.432459-159.226444-71.819722-35.415604-34.180474-61.062727-81.074503-61.062727-143.597489 0-19.043728 15.629979-34.673707 34.180474-34.673707 1.497097 0 2.972705 0.109494 4.425799 0.300852 1.333368-0.196475 2.697435-0.300852 4.086062-0.300852l692.7609 0c1.206478 0 2.390443 0.084934 3.554966 0.234337 1.294482-0.149403 2.609431-0.234337 3.944845-0.234337 18.550495 0 34.17945 15.628956 34.17945 34.180474C900.400472 34.13161100000002 874.527199 81.02461700000003 839.361281 115.20509100000004zM232.186641 65.39259200000004c36.157501 35.168987 86.709851 50.798966 116.736725 52.752458 24.927739 2.448772 47.880497 12.69002 64.004733 29.309536 21.963221 21.98471 26.859741 47.385217 26.859741 76.692706 0 13.675464-7.321756 24.905226-18.078751 30.273491-23.917736 15.135722-36.628222 46.397726-47.363727 72.7847-9.051143 22.457478-17.113773 42.491767-32.002878 56.169277l-0.493234 0-0.966001 1.460258c-8.555863 8.308223-20.774139 23.444968-27.128871 39.569204-10.734482 29.308513 7.343245 30.29498 11.003612 52.753481 1.706875 7.814989 0.246617 16.126282-3.660366 22.481014-8.555863 20.998243-12.710486 46.39875-13.18223 72.29249-0.494257 29.30749 4.626367 59.58098 13.654998 86.440721l0.986467 2.940982c11.969613 33.709753 30.543643 58.121745 54.460356 73.751724 27.601638 19.043728 63.017242 27.352975 103.800088 27.847232 17.09126 0.494257 40.042995 0.966001 60.322877-2.447748 15.384385-2.919493 28.589129-7.814989 33.709753-15.631002l2.201132-2.447748c6.332219-8.779967 14.642488-15.629979 23.940249-20.502963 10.734482-4.895497 22.457478-6.354731 34.428114-4.895497 10.758018 1.953492 23.447015-7.814989 35.168987-21.964244 22.210861-25.89374 37.84084-61.556984 40.783869-82.060971 2.942005-16.618493 2.447748-33.708729 0.246617-52.281737-2.200108-19.537985-7.096628-39.548738-13.924127-61.534472-4.154623-12.216229-0.98749-30.29498 8.06263-40.536228l-0.24764 0c8.31027-8.80248 7.322779-21.4925 2.448772-34.20401-6.354731-17.090237-19.066241-32.226982-27.601638-40.042995l-0.245593-0.493234 0 0.493234c-15.629979-14.169721-23.444968-34.201963-32.968879-57.155744-10.016121-26.386974-22.705118-57.155744-46.89096-71.796186-34.428114-21.4925-8.06263-89.878007 10.486842-107.954711 16.619516-16.618493 39.078017-26.860764 63.511499-29.309536 30.273491-1.953492 81.074503-17.58347 117.477598-52.752458 17.394159-16.8559 31.355125-38.093597 37.250392-64.961524L195.15626 0.432091000000014C200.951243 27.407466 214.65229 48.58171800000002 232.186641 65.39259200000004z"  horiz-adv-x="1024" />

    
    <glyph glyph-name="denglu-copy" unicode="&#58938;" d="M512 305.25c-142.5 0-258.75 116.25-258.75 258.75s116.25 262.5 258.75 262.5 258.75-116.25 258.75-258.75-116.25-262.5-258.75-262.5zM512 751.5c-101.25 0-183.75-82.5-183.75-183.75s82.5-183.75 183.75-183.75 183.75 82.5 183.75 183.75-82.5 183.75-183.75 183.75zM170.75-54.75c-18.75 0-37.5 15-37.5 37.5 0 7.5 0 11.25 0 15 0 210 172.5 382.5 382.5 382.5 22.5 0 37.5-15 37.5-37.5s-15-37.5-37.5-37.5c-168.75 0-307.5-138.75-307.5-307.5v-11.25c0-22.5-18.75-41.25-37.5-41.25v0zM853.25-51v0c-22.5 0-37.5 15-37.5 37.5v11.25c0 168.75-138.75 307.5-307.5 307.5-22.5 0-37.5 15-37.5 37.5s15 37.5 37.5 37.5c210 0 382.5-172.5 382.5-382.5 0-3.75 0-7.5 0-11.25 0-22.5-15-37.5-37.5-37.5z"  horiz-adv-x="1024" />

    
    <glyph glyph-name="yonghu" unicode="&#58916;" d="M780.579826 88.36704l-61.217697 74.165724-50.126459-46.035722 61.190392-74.131592-1.220224-1.122947 44.585106-51.42348 50.126459 46.035722 0 0 171.851905 157.835542c17.473948-31.242853 28.285303-66.726625 28.285303-105.070669 0-119.629733-96.977939-216.604259-216.607672-216.604259S590.839267-31.008408 590.839267 88.623032s96.977939 216.611085 216.607672 216.611085c56.67983 0 107.843905-22.262687 146.447354-57.90176L780.579826 88.36704zM646.37055 481.530026c-21.073182-78.742844-55.959641-102.541478-55.959641-102.541478-21.987924-31.995467-14.673406-64.10357 1.62981-89.439856-49.237317-52.764873-79.968188-123.060013-79.968188-200.925661 0-50.059901 13.622137-96.48473 35.603234-137.801684L31.751422-49.178652c-17.53368 0-31.751422 14.453254-31.751422 32.27535l0 55.592721c0 41.702647 5.032784 71.988094 60.796165 97.351686 79.085872 35.980394 221.916926 92.602199 254.560904 114.605482 32.643977 22.003283 75.833079 75.486638 39.501124 128.341961 0 0-34.886459 23.798634-55.959641 102.541478 0 0-18.997948 6.242768-33.959771 24.897689-40.663323 50.701585-27.764788 121.553079 2.512125 126.746284 0 0-7.447633 84.28761 15.895337 139.806947C301.466995 816.09325 350.429548 895.179122 471.733463 895.907843 471.80002 895.962455 471.847805 895.982934 471.847805 895.982934c0.271351 0 0.515395-0.030719 0.791866-0.030719 0.271351 0 0.511982 0.030719 0.788452 0.030719 0 0 0.047785-0.020479 0.114343-0.075091 121.300501-0.728721 169.390978-80.196873 188.385513-122.926898 21.165339-47.6058 15.891924-139.806947 15.891924-139.806947 31.341836-21.590284 33.179852-82.889899 2.512125-126.746284C666.629681 486.830748 646.37055 481.530026 646.37055 481.530026z"  horiz-adv-x="1025" />

    
    <glyph glyph-name="tousuchufa" unicode="&#59086;" d="M235.14838701-46.258064940000054c-7.66451602 0-15.18387099 1.36451602-22.35483896 4.06451689-23.71935498 9.14516104-38.90322598 30.86129003-38.81612901 55.36451602l0.37741992 141.15483808C115.50645195 166.34516104 71.43548398 216.71612901000003 71.43548398 276.87096797000004V705.59032295C71.43548398 774.62903203 129.55806494 830.80645195 200.97741904 830.80645195h615.13548399c71.41935498 0 129.57096797-56.17741904 129.57096796-125.216129v-428.74838789c0-69.03870996-58.12258096-125.21612901-129.57096796-125.21612901H453.52903203l-173.75806406-179.216129a62.39032295 62.39032295 0 0 0-44.62258096-18.66774199zM200.97741904 778.2580649399999c-41.632258 0-75.48387099-32.60322597-75.48387099-72.66774199v-428.74838789c0-40.06451602 33.85161299-72.63870996 75.48387099-72.63870908h27.11612901l0.37741992-26.36129092-0.46451602-164.816129c0-2.7 1.8-5.22580605 4.5-6.24193507a8.01290302 8.01290302 0 0 1 7.95483809 1.71290304l189.75483897 195.67741992h385.89677402c41.632258 0 75.51290302 32.60322597 75.51290302 72.66774111V705.59032295c0 40.06451602-33.88064502 72.63870996-75.48387099 72.63870908H200.94838701zM479.28064502 463.08387099c0-19.62580606 15.85161299-35.53548398 35.41935498-35.53548398 19.567742 0 35.41935498 15.90967705 35.41935498 35.53548398V628.9161290100001c0 19.62580606-15.85161299 35.53548398-35.41935498 35.53548398-19.567742 0-35.41935498-15.90967705-35.41935498-35.53548398v-165.83225802z m35.41935498-82.916129c-19.567742 0-35.41935498-15.90967705-35.41935498-35.53548399 0-19.62580606 15.85161299-35.53548398 35.41935498-35.53548398 19.567742 0 35.41935498 15.90967705 35.41935498 35.53548398 0 19.62580606-15.85161299 35.53548398-35.41935498 35.53548399z"  horiz-adv-x="1024" />

    
    <glyph glyph-name="guaduan" unicode="&#58883;" d="M156.853 247.12h-16.816c-0.736 0.207-1.46 0.526-2.211 0.605-19.122 2.033-34.26 10.914-45.562 26.427-8.119 11.144-13.813 23.541-18.06 36.54-3.8 11.633-6.813 23.525-10.174 35.303V357.43c1.685 5.882 2.827 11.989 5.16 17.602 5.773 13.884 15.904 24.522 27.111 34.18 15.258 13.149 32.348 23.631 49.598 33.88 28.341 16.837 57.427 32.09 88.71 42.876 43.863 15.126 89.194 23.133 135.143 28.124 35.334 3.837 70.795 5.749 106.328 6.364 0.99 0.017 1.975 0.276 2.961 0.422h64.572c1.21-0.158 2.415-0.39 3.63-0.464 29.953-1.841 59.948-3.162 89.85-5.621 36.74-3.022 73.084-9.008 108.96-17.55 50.42-12.005 98.76-28.752 140.824-60.465 16.098-12.136 32.966-23.244 47.116-37.771 9.762-10.023 18.283-20.93 22.915-34.367 1.264-3.664 2.054-7.493 3.062-11.245v-11.434c-2.247-8.518-4.386-17.067-6.767-25.547-3.96-14.098-7.752-28.271-14.933-41.205-7.544-13.59-18.826-22.28-34.091-25.443-5.777-1.198-11.68-1.782-17.525-2.645h-12.78c-1.32 0.179-2.636 0.417-3.962 0.527-6.81 0.56-13.654 0.823-20.427 1.67-40.25 5.04-79.28 15.285-117.685 28.065-20.007 6.657-32.68 20.496-37.337 40.945-2.172 9.532-3.213 19.45-3.582 29.236-0.711 18.863-9.015 32.775-25.447 41.673-5.863 3.176-12.145 5.79-18.511 7.78-21.149 6.612-43.062 8.482-65.04 8.72-40.114 0.435-80.235 0.31-120.352 0.329-22.538 0.01-45.041-0.722-67.264-4.955-13.706-2.61-27.02-6.413-38.847-14.187-11.667-7.67-19.07-18.225-20.775-32.225-0.893-7.327-0.843-14.764-1.545-22.12-2.531-26.52-15.224-45.5-40.72-55.293-37.85-14.54-77.097-23.11-117.208-28.14-6.095-0.764-12.212-1.354-18.319-2.025z"  horiz-adv-x="1024" />

    
    <glyph glyph-name="gengduo" unicode="&#59005;" d="M526.185 139.232c-7.678 0-15.355 2.929-21.213 8.787-11.716 11.716-11.716 30.71 0 42.426l212.631 212.631c11.715 11.716 30.711 11.716 42.426 0 11.716-11.716 11.716-30.71 0-42.426L547.397 148.02c-5.857-5.859-13.535-8.788-21.212-8.788zM738.815 357.231c-7.678 0-15.355 2.93-21.213 8.787L504.971 578.649c-11.716 11.716-11.716 30.711 0 42.427 11.716 11.716 30.711 11.716 42.426 0l212.631-212.631c11.716-11.716 11.716-30.711 0-42.427-5.857-5.857-13.535-8.787-21.213-8.787zM285.185 139.232c-7.678 0-15.355 2.929-21.213 8.787-11.716 11.716-11.716 30.71 0 42.426l212.631 212.631c11.716 11.716 30.711 11.716 42.426 0 11.716-11.716 11.716-30.71 0-42.426L306.398 148.02c-5.858-5.859-13.536-8.788-21.213-8.788zM497.815 357.231c-7.678 0-15.355 2.93-21.213 8.787L263.971 578.649c-11.716 11.716-11.716 30.711 0 42.427s30.711 11.716 42.427 0l212.63-212.631c11.716-11.716 11.716-30.711 0-42.427-5.857-5.857-13.535-8.787-21.213-8.787z"  horiz-adv-x="1024" />

    
    <glyph glyph-name="home_top" unicode="&#59038;" d="M769.66456889-77.75345777999996h-184.89571556c-18.36600889 0-33.14005333 14.77518222-33.14005333 33.14005333v287.21493334c0 0.13880889-0.27534222 0.55182222-0.55182222 0.55182222h-86.85454223c-0.13880889 0-0.55182222-0.27534222-0.55182222-0.55182222v-287.21493334c0-18.36600889-14.77518222-33.14005333-33.14005333-33.14005333h-184.75690667c-55.37223111 0-100.38727111 45.01504-100.38727111 100.38727111v291.90940445h-20.15914667c-31.20696889 0-59.2384 18.50254222-71.66634666 47.22460444-12.28913778 28.58325333-6.48874667 61.72444445 15.05166222 84.36963556l337.89155556 356.80938667c27.3408 28.85859555 65.72828445 45.43032889 105.49589333 45.43032888s78.15509333-16.56945778 105.49589333-45.43032888l337.75388445-356.80938667c21.40273778-22.64519111 27.3408-55.78524445 15.05166222-84.36963556s-40.45824-47.22460445-71.66634667-47.22460444h-28.58325333v-291.90940445c0-55.37223111-45.01504-100.38727111-100.38727111-100.38727111zM617.91004445-11.472213330000045h151.75452444c18.78016 0 34.10716445 15.32700445 34.10716444 34.10716444v325.05059556c0 18.36600889 14.77518222 33.14005333 33.14005334 33.14005333h61.72444444c3.58968889 0 8.56064 1.79541333 10.77134222 7.04284445s0.13880889 10.08071111-2.20956444 12.70328888l-338.03036444 356.80938667c-15.05166222 15.87996445-35.34961778 24.71708445-57.30531556 24.71708445s-42.25365333-8.69944889-57.30531556-24.71708445l-337.89155555-356.80938667c-2.48604445-2.62371555-4.5568-7.45699555-2.20956445-12.70328888 2.20956445-5.24629333 7.18051555-7.04284445 10.77134222-7.04284445h53.30033778c18.36600889 0 33.14005333-14.77518222 33.14005334-33.14005333v-325.05059556c0-18.78016 15.32700445-34.10716445 34.10716444-34.10716444h151.75452444v254.07488c0 36.86855111 29.96451555 66.83306667 66.83306667 66.83306666h86.85454223c36.86855111 0 66.83306667-29.96451555 66.83306666-66.83306666v-254.07488z"  horiz-adv-x="1024" />

    
    <glyph glyph-name="guanbishexiangtou" unicode="&#58980;" d="M70.4196352 733.42059093l643.65250347-721.42159253 41.24333333 41.24333333-643.65250453 721.42050027zM907.58015893 602.62841387c-12.79378347 0-21.0129792-6.46729493-21.56965653-7.01087467l-141.95194453-91.78429013v-268.97507947l140.993584-91.0747968c1.51394773-1.3032832 9.73423467-7.76948693 22.52692586-7.76948693 17.04200533 0 30.90111787 14.79782613 30.90111894 32.9924832V569.63593067c0.0010912 18.19465707-13.85802133 32.9924832-30.90002774 32.9924832zM666.28946987 590.47754027c0 28.1373728-22.03792213 51.03650987-49.1176064 51.03650986H304.49424213l361.79522774-398.4137632V590.47754027zM44.1356736 590.47754027v-442.31168854c0-28.1373728 22.03683093-51.03650987 49.1176064-51.03650986h469.20799573L72.46952213 636.71460693c-16.72218773-8.1493376-28.33384747-25.81242133-28.33384853-46.23706666z"  horiz-adv-x="1024" />

    
    <glyph glyph-name="dengdai" unicode="&#58893;" d="M513.660121 896c-282.763636 0-512-229.236364-512-512s229.236364-512 512-512 512 229.236364 512 512-229.220848 512-512 512z m207.453091-686.529939a31.030303 31.030303 0 0 0-43.613091-4.840728l-188.633212 150.900364a30.983758 30.983758 0 0 0-13.979151 25.894788v341.333333a31.030303 31.030303 0 0 0 31.030303 31.030303h0.279272a31.030303 31.030303 0 0 0 31.030303-31.030303l14.754909-320.06206 164.28994-149.597091a31.061333 31.061333 0 0 0 4.840727-43.628606z"  horiz-adv-x="1025" />

    
    <glyph glyph-name="shanchu" unicode="&#58922;" d="M878.54 669.456h-40.717v-651.469c0-44.976-36.458-81.434-81.434-81.434H267.787c-44.976 0-81.434 36.458-81.434 81.434V669.456h-40.717c-22.488 0-40.717 18.229-40.717 40.717s18.229 40.717 40.717 40.717h244.301c0 44.976 36.458 81.434 81.434 81.434h81.434c44.976 0 81.434-36.458 81.434-81.434H878.54c22.488 0 40.717-18.229 40.717-40.717s-18.229-40.717-40.717-40.717z m-122.151 0H267.787v-651.469h488.602V669.456z m-325.734-81.434c22.488 0 40.717-18.229 40.717-40.717v-407.168c0-22.488-18.229-40.717-40.717-40.717s-40.717 18.229-40.717 40.717V547.305c0 22.488 18.229 40.717 40.717 40.717z m162.867 0c22.488 0 40.717-18.229 40.717-40.717v-407.168c0-22.488-18.229-40.717-40.717-40.717s-40.717 18.229-40.717 40.717V547.305c0 22.488 18.229 40.717 40.717 40.717z"  horiz-adv-x="1024" />

    
    <glyph glyph-name="buquan" unicode="&#59157;" d="M852.503091 452.995397v-464.688461c0-15.056927-12.31856-27.300786-27.66406-27.300786H170.628122c-15.394618 0-27.66406 12.166087-27.66406 27.337625V752.3666949999999c0 15.210423 12.072967 27.337625 27.268041 27.337625h331.95746V834.284403H170.234149c-45.39284 0-81.849146-36.615942-81.849146-81.917708v-764.02292c0-45.416376 36.806277-81.917708 82.243119-81.917708H824.840054c45.414329 0 82.243119 36.605709 82.24312 81.879846V452.994374h-54.57906v0.001023zM716.054419 697.834708h-136.263453c-14.765285 0-27.476795-12.218276-27.476795-27.290553 0-14.631232 12.301164-27.290553 27.476795-27.290553h136.26243v-136.26243c0-14.765285 12.218276-27.476795 27.290553-27.476795 14.631232 0 27.290553 12.301164 27.290553 27.476795V643.253602h136.26243c14.765285 0 27.476795 12.218276 27.476795 27.290553 0 14.631232-12.301164 27.290553-27.476795 27.290553h-136.263453V834.097138c0 14.765285-12.218276 27.476795-27.290554 27.476795-14.631232 0-27.290553-12.301164-27.290553-27.476795v-136.26243h0.002047zM224.834698 561.3850130000001c0 15.071254 11.775184 27.290553 27.03882 27.290553h109.662609c14.933107 0 27.03882-12.658298 27.038819-27.290553 0-15.071254-11.775184-27.290553-27.038819-27.290553H251.873518c-14.933107 0-27.03882 12.658298-27.03882 27.290553zM224.834698 353.29774399999997c0 15.071254 11.726066 27.290553 27.163663 27.290553h218.572064c15.002692 0 27.163663-12.658298 27.163663-27.290553 0-15.071254-11.726066-27.290553-27.163663-27.290553H251.999384c-15.002692 0-27.164686 12.658298-27.164686 27.290553zM224.834698 147.53235700000005c0 15.071254 12.596899 27.290553 27.314089 27.290553h382.01146c15.08558 0 27.314089-12.659321 27.314089-27.290553 0-15.071254-12.596899-27.290553-27.314089-27.290553H252.148787c-15.084557 0-27.314089 12.659321-27.314089 27.290553z"  horiz-adv-x="1024" />

    
    <glyph glyph-name="notice" unicode="&#59483;" d="M512 862.4c264.21333333 0 478.4-214.18666667 478.4-478.4S776.21333333-94.39999999999998 512-94.39999999999998 33.6 119.78666667000005 33.6 384 247.78666667 862.4 512 862.4zM720.96 510.61333333c-8.85333333 7.89333333-22.18666667 7.89333333-31.04 0s-8.85333333-19.62666667 0-27.52c31.04-27.52 51.73333333-66.98666667 51.73333333-112.21333333s-20.58666667-82.45333333-51.73333333-111.89333333c-8.85333333-7.89333333-8.85333333-19.62666667 0-27.52s22.18666667-7.89333333 31.04 0c39.89333333 35.41333333 64.32 84.37333333 64.32 139.41333333-0.10666667 55.04-24.42666667 104.32-64.32 139.73333333zM675.09333333 452.26666667c-8.42666667 7.78666667-20.90666667 7.78666667-29.22666666 0-8.42666667-7.78666667-8.42666667-19.41333333 0-27.2 14.61333333-13.54666667 23.14666667-32.96 23.14666666-54.29333334s-6.29333333-40.85333333-23.14666666-54.50666666c-8.42666667-7.78666667-8.42666667-19.41333333 0-27.2 8.42666667-7.78666667 20.90666667-7.78666667 29.22666666 0 23.04 21.33333333 37.44 50.56 37.44 81.6 0 31.25333333-14.50666667 62.29333333-37.44 81.6zM546.88 582.18666667l-139.84-80.32V240l139.84-80.21333333c26.45333333-16.74666667 49.06666667-3.73333333 49.06666667 26.02666666V553.70666667c0 32.32-22.72 43.62666667-49.06666667 28.48zM261.54666667 445.54666667v-149.65333334c0-31.78666667 25.17333333-56.10666667 58.13333333-56.10666666h58.13333333V501.76h-58.13333333c-32.96 0-58.13333333-24.32-58.13333333-56.21333333z"  horiz-adv-x="1024" />

    
    <glyph glyph-name="yonghushanchu1" unicode="&#58910;" d="M451.575 781.377c20.395 6.29 41.206 8.007 60.433 8.007 26.421 0 55.85-3.251 83.083-17.163 51.987-26.553 96.009-91.985 96.009-247.897 0-51.794-13.993-104.616-38.859-150.323a311.64 311.64 0 0 0-7.708-13.313c23.286-0.935 45.046-10.43 61.621-27.005l12.101-12.101c36.104 60.572 56.102 131.386 56.102 202.742 0 143.942-35.668 231.008-86.294 282.102C637.435 857.52 571.851 872.63 512.008 872.63h-0.011c-108.467 0-235.805-49.63-258.719-273.2-2.378-23.128-3.628-48.116-3.628-75.106 0-5.467 0.122-10.934 0.345-16.391 0.509-11.859 1.606-23.677 3.182-35.435 2.052-15.273 4.948-30.424 8.749-45.332 2.53-9.958 5.487-19.795 8.77-29.52 0.193-0.58 0.355-1.159 0.559-1.738 0.549-1.585 1.169-3.15 1.728-4.735 14.064-39.336 34.144-76.366 59.6-109.026-0.376-0.742-0.763-1.474-1.139-2.216-0.69-1.331-1.372-2.672-2.073-3.983-0.314-0.579-0.619-1.138-0.935-1.707a217.023 217.023 0 0 0-2.51-4.491 123.05 123.05 0 0 0-1.605-2.724c-0.163-0.284-0.336-0.569-0.509-0.854a86.615 86.615 0 0 0-2.632-4.014l0.031-0.011c-0.143-0.192-0.295-0.447-0.427-0.63l-30.059-8.2a42.532 42.532 0 0 1-4.878-1.656c-29.205-11.971-60.503-25.436-90.786-38.442-19.348-8.313-38.513-16.554-56.927-24.327-8.353-3.526-17.438-6.677-27.051-10.01-39.143-13.554-87.838-30.433-106.576-84.728a41.692 41.692 0 0 1-2.276-13.576c0-11.838-0.447-30.008-0.935-50.098C0.524-1.844-0.35-38.467 0.158-63.832c0.447-22.661 18.942-40.8 41.603-40.8h512.184c-3.755 10.154-5.731 20.995-5.731 32.145 0 18.453 5.371 36.079 15.365 51.102H83.464c0.264 16.238 0.671 33.615 1.057 49.874 0.407 16.401 0.752 31.563 0.895 43.279 6.829 11.401 23.128 18.139 52.923 28.463 10.466 3.628 21.299 7.378 32.172 11.971 18.556 7.824 37.904 16.147 57.435 24.541 29.124 12.519 59.224 25.455 87.128 36.928l38.046 10.396a41.323 41.323 0 0 1 12.62 5.863c15.456 10.629 27.447 28.555 38.32 49.265 0.955 1.809 1.87 3.719 2.805 5.559 0.519 1.016 1.026 2.032 1.534 3.048 3.1 6.22 6.158 12.551 9.166 19.064l1.87 4.023c2.602 5.579 3.841 11.534 3.852 17.448 0 0.122 0.021 0.243 0.021 0.355-0.011 1.575-0.184 3.13-0.366 4.685-0.051 0.447-0.041 0.895-0.112 1.342-0.183 1.219-0.528 2.418-0.822 3.617-0.184 0.752-0.295 1.524-0.519 2.266-0.406 1.332-0.966 2.622-1.515 3.912-0.233 0.57-0.406 1.17-0.67 1.738a41.883 41.883 0 0 1-6.859 10.232c-43.584 47.813-71.804 113.274-78.175 179.479a297.958 297.958 0 0 0-1.372 28.361c0 22.275 0.895 42.7 2.592 61.428 11.835 131.118 62.553 179.123 116.085 195.625zM871.238 97.888l140.308 140.309c16.605 16.604 16.605 43.526 0 60.131-16.604 16.605-43.526 16.604-60.131 0L811.106 158.02 670.798 298.327c-16.604 16.604-43.526 16.604-60.131 0-16.605-16.604-16.605-43.526 0-60.131l140.308-140.309L610.667-42.42c-16.605-16.605-16.605-43.527 0-60.132 16.604-16.605 43.526-16.605 60.132 0l140.308 140.308 140.308-140.308c16.605-16.605 43.527-16.605 60.132 0 16.605 16.604 16.605 43.526 0 60.132L871.238 97.888z"  horiz-adv-x="1024" />

    
    <glyph glyph-name="yonghu1" unicode="&#59011;" d="M412.8 896c137.6 0 249.6-115.2 249.6-256s-112-256-249.6-256-249.6 115.2-249.6 256c3.2 140.8 112 256 249.6 256zM528 304c-19.2-67.2-22.4-83.2-19.2-121.6 0-12.8 3.2-28.8 9.6-48 9.6-25.6 19.2-51.2 35.2-73.6l3.2-6.4c25.6-41.6 57.6-60.8 41.6-92.8-6.4-16-19.2-48-3.2-80 3.2-6.4-80 0-137.6 0H320c-176 0-320 0-320 73.6v22.4C0 160 144 307.2 320 307.2h179.2M899.2-32c-35.2-16-73.6-25.6-115.2-25.6-41.6 0-80 9.6-112 25.6l-25.6-28.8c-22.4-22.4-6.4-57.6 25.6-57.6h236.8c28.8 0 44.8 35.2 22.4 57.6l-32 28.8z m-115.2 339.2c57.6 0 102.4-44.8 102.4-102.4s-44.8-102.4-102.4-102.4c-57.6 0-102.4 44.8-102.4 102.4s44.8 102.4 102.4 102.4m0 124.8c-124.8 0-224-99.2-224-224s102.4-224 224-224c124.8 0 224 99.2 224 224 0 121.6-102.4 224-224 224z m0 0"  horiz-adv-x="1024" />

    
    <glyph glyph-name="people-edit" unicode="&#58934;" d="M236.896 679.5840000000001c0-106.048 82.464-192.064 184.224-192.064 101.696 0 184.192 86.016 184.192 192.064 0 106.016-82.496 192-184.192 192-101.792 0-184.224-85.984-184.224-192z m0 0M812.544 62.111999999999966c-13.92 30.944-42.496 122.048-75.2 122.048-32.64 0-35.296-12.32-35.296-12.32l35.296-94.592-180.736 15.776-76.416 180.736c-74.688 184.224-149.472 204.992-222.432 204.992-35.328 0-109.504-4.224-166.336-76.064C34.72 330.88-0.064-66.88-0.064-66.88h346.048l-124.352 241.792 52.512 33.184s9.312-20.032 70.272-149.824c61.056-129.888 102.72-147.584 102.72-147.584h325.216c47.84 0 86.464 15.456 86.464 77.312 0 61.824-46.272 74.112-46.272 74.112z m0 0M690.4 421.312s-33.568-64.928-60.16-92.704c-26.688-27.776-78.816-98.464-38.24-155.232l119.328 195.904 249.12-113.632-91.488-136.704s-12.8-54.464 4.608-56.768c17.376-2.304 151.808 216.672 151.808 216.672l-334.976 142.464z m0 0"  horiz-adv-x="1025" />

    
    <glyph glyph-name="bianji" unicode="&#58947;" d="M581.052702 686.264185L813.754578 452.353784c19.315928 19.686365 37.198204 37.910425 53.040007 54.051034l-232.469585 232.469585a775168.835018 775168.835018 0 0 0-53.272298-52.610218zM942.317653 683.494095l-127.899972 127.897925c-36.982286 36.982286-88.558965 18.2302-113.700575-6.912433-1.312902-1.311879-12.753465-12.620435-31.470759-31.110555l231.342925-232.54531c20.87647 21.25407 34.271548 34.871205 37.010939 37.610596 23.77345 23.861454 36.668131 73.108065 4.717442 105.059777zM689.098487 506.710786l-54.713112 54.711066-383.782804-386.892631 52.916187-53.40021 385.579729 385.581775zM344.617805 79.818139l0.26913-0.270153-146.662291-43.300178-32.126698 32.125675 43.301201 147.361209 385.337206 385.338229L545.073256 650.736017c-162.077376-160.04202-392.46965-387.494335-392.469649-387.494335l-86.122473-294.373471s-10.904351-47.15702 41.600467-28.308742l285.992593 83.83129s224.308719 228.804103 384.868531 392.476813l-50.193169 50.193169-384.131751-387.242602z"  horiz-adv-x="1024" />

    
    <glyph glyph-name="assignRoles" unicode="&#58993;" d="M510.816 320a288 288 0 1 1 0 576 288 288 0 0 1 0-576z m0 64a224 224 0 1 0 0 448 224 224 0 0 0 0-448z m0-64a32 32 0 0 1 0 64 384 384 0 0 1-384-384 32 32 0 0 1 32-32h352a32 32 0 0 1 0 64H192.416A320 320 0 0 0 510.816 320z m247.744-22.656a32 32 0 1 1-45.248 45.312l-82.56-82.56c-45.056-45.056-23.04-100.096 40.768-100.096h193.728a32 32 0 1 1 0 64H685.216l73.344 73.344z m-13.056-338.688a32 32 0 1 1 45.248-45.312l82.56 82.56c45.056 45.056 23.04 100.096-40.768 100.096H638.752a32 32 0 1 1 0-64h180.032l-73.344-73.344z"  horiz-adv-x="1024" />

    
    <glyph glyph-name="time-square" unicode="&#59175;" d="M886.11960938 414.10991688L539.67109174 760.70604831c-16.23746757 16.23746757-42.36502994 16.23746757-58.60249753 0L134.62007657 414.10991688c-16.23746757-16.23746757-16.23746757-42.36502994 0-58.60249752l346.44851764-346.44851765c16.23746757-16.23746757 42.36502994-16.23746757 58.60249753 0L886.11960938 355.65503314c16.23746757 16.08985501 16.23746757 42.36502994 0 58.45488374z m-183.77861316-67.31168457c-0.73806643-5.46169378-5.01885369-9.44725348-10.18532113-10.18532113l-168.57443837-22.88006788c-5.60930755-1.47613286-11.36622766-1.77136041-16.975534-0.88568021-7.67589429 0.73806643-15.35178737 3.9855597-21.25632125 9.89009359-0.73806643 0.59045388-1.32852031 1.18090653-2.06658674 1.91897418-9.29964093 9.29964093-13.13758807 21.99438768-11.80906777 34.09868177 0 0.8856802-0.14761377 1.77136041 0 2.65704062l26.71801503 210.93946831c1.03329397 7.67589429 8.11873439 13.13758807 15.79462748 12.10429409 6.49498655-0.8856802 11.36622766-6.05214766 12.1042941-12.10429409l26.42278869-194.84961329 139.64222283-17.71360165c6.49498655-0.59045388 11.07100133-6.49498655 10.18532113-12.98997431z"  horiz-adv-x="1024" />

    
    <glyph glyph-name="dengdaichaxun" unicode="&#58896;" d="M943.8-15.5L735.1 193.3c60.3 67.8 96.9 157.2 96.9 255 0 212.1-171.9 384-384 384S64 660.4 64 448.3s171.9-384 384-384c92.6 0 177.5 32.8 243.8 87.3l209.5-209.5c6.2-6.2 16.4-6.2 22.6 0l19.8 19.8c6.4 6.2 6.4 16.4 0.1 22.6zM677.2 219.2c-29.8-29.8-64.4-53.1-103-69.5-39.9-16.9-82.3-25.4-126.1-25.4s-86.2 8.6-126.1 25.4c-38.6 16.3-73.2 39.7-103 69.5-29.8 29.8-53.1 64.4-69.5 103-16.9 39.9-25.4 82.3-25.4 126.1s8.6 86.2 25.4 126.1c16.3 38.6 39.7 73.2 69.5 103 29.8 29.8 64.4 53.1 103 69.5 39.9 16.9 82.3 25.4 126.1 25.4s86.2-8.6 126.1-25.4c38.6-16.3 73.2-39.7 103-69.5 29.8-29.8 53.1-64.4 69.5-103 16.9-39.9 25.4-82.3 25.4-126.1s-8.6-86.2-25.4-126.1c-16.4-38.6-39.8-73.2-69.5-103zM273.4 495.3c-25.4 0-46-20.6-46-46s20.6-46 46-46 46 20.6 46 46-20.6 46-46 46zM448 495.3c-25.4 0-46-20.6-46-46s20.6-46 46-46 46 20.6 46 46-20.6 46-46 46zM622.5 495.3c-25.4 0-46-20.6-46-46s20.6-46 46-46 46 20.6 46 46-20.6 46-46 46z"  horiz-adv-x="1024" />

    
    <glyph glyph-name="xianchangren" unicode="&#58894;" d="M516.37295028 96.85976051c4.85969667 0 9.71680427 0.2770312 14.71760561 0.83368266 47.61311763 5.69079024 88.00918439 39.00832174 103.00252666 84.81814755 1.1094193 3.46936257-0.55665147 7.07982981-3.7476883 8.60609043-3.19233138 1.52626062-7.21834541 0.13722107-9.02163722-2.91530019-0.13722107-0.2770312-19.15787188-30.8177781-92.72907093-40.81290809-10.96732823-1.52626062-21.79484635-2.22142768-31.92849193-2.22142768-51.64042619 0-74.68450196 19.43360853-74.82172302 19.71193428-2.63826899 2.36253235-6.52447289 2.36253235-9.16274189 0.13722104-2.63826899-2.22142768-3.33084697-6.10763156-1.52626062-9.16274188 22.48742432-36.23153715 62.74497549-58.9972872 105.22136526-58.9972872v0 0zM516.37295028 96.85976051zM912.55214838 553.42528537c-0.69387251 0-1.24922943-0.13722107-1.80458634-0.13722105-43.17155682 186.98310795-208.22259737 326.35568735-405.89600238 326.35568734-203.22697419 0-371.88848197-147.14369264-409.36924855-341.76328185-36.37005275-6.52447289-63.99291038-38.45296482-63.99291038-77.18166629v-154.64165831c0-43.30877787 34.70398198-78.56941132 77.73831776-78.56941132 24.1547896 0 45.53279463 11.38287502 59.82967529 29.01319174 34.42306718-90.92319005 104.25175609-164.08013685 192.81370832-202.8114274 0.2770312 0.41684133 1.94310195 3.7476883 3.88749843 6.38595729 1.38774503 1.80458635 2.91530018 3.33084697 4.30433976 3.33084698 1.38774503 0 2.63826899-0.55665147 3.7476883-1.24922943-20.54432237 15.27037345-94.53365728 93.69997463-110.49790326 203.08716405-7.07982981 48.16847455 29.01319173 95.36733993 71.07403472 103.27826331 67.46486203 12.49358885 134.51158818 26.79176407 201.97645022 39.14554279 42.89582017 7.77370231 72.18345403 31.37054594 90.09339101 70.51867781 4.16452962 9.16274189 10.27345573 27.62415218 13.04765125 54.27610612 0.69387251 4.02601403 4.02601403 7.07982981 8.19054364 7.0798298 2.77678459 0 5.13672786-1.38774503 6.66298848-3.46936257l1.80458636 1.10941931c26.51343835-38.59148042 79.26457837-124.10220595 86.89717601-214.19430244 8.74590057-103.00252667 3.88749843-173.51861538-74.96023861-245.7020694-0.13722107-0.13722107-0.2770312-0.13722107-0.27703119-0.27703118-1.11071383-1.24922943-1.80458635-2.77678459-1.80458636-4.44285536 0-2.22142768 1.24922943-4.16452962 2.91530019-5.27394891 0.69387251-0.2770312 1.24922943-0.55665147 1.94310194-0.83368267 0.55665147-0.13722107 0.97219824-0.2770312 1.52626063-0.27703118s0.97219824 0.13722107 1.52626062 0.27703118c1.1094193 0.55665147 2.22142768 1.24922943 3.33084698 1.80458637 79.68012515 43.86542933 140.89754548 117.29940733 169.2168647 205.44710732 11.38287502-16.93514967 29.28892839-29.28892839 50.11416558-33.45475257-33.31623696-151.86357918-168.80002338-246.81666686-336.48933294-261.25076858-9.99383547 24.98847227-34.84249758 42.6161999-63.85568932 42.6161999-37.89501883 0-68.71409147-30.12520012-68.71409146-67.0480207 0-37.06521979 30.8177781-67.0480207 68.71409146-67.04802071 30.5407469 0 56.22050259 19.71193426 65.10491876 46.64091939 194.20533697 15.82573037 349.81660445 131.18203575 382.29786421 310.53125152 28.73616055 11.93952649 48.8636416 40.1164465 48.8636416 73.01713668v156.58476024c-0.13722107 43.72691374-35.95321141 79.12606277-79.95715635 79.12606278v0 0zM840.92405129 508.58636325c-50.66822795 137.15115173-181.84767463 235.15417157-336.21230176 235.15417159-153.80797566 0-284.4346545-97.17192628-335.6556503-233.48810082-2.49716432 3.05381579-5.55227465 5.82930583-8.46757482 8.46757483 28.87467615 166.16304893 171.85383917 292.34557787 344.2643298 292.34557787 171.57551344 0 314.00190862-125.07181511 343.98470952-289.9856346-3.05381579-3.88749843-5.69079024-8.05073351-7.91092338-12.49358887v0 0zM840.92405129 508.58636325zM361.87239664 53.82671929000003v0c-0.13722107-0.13722107-0.13722107-0.13722107 0 0v0 0zM361.87239664 53.82671929000003z"  horiz-adv-x="1024" />

    
    <glyph glyph-name="wuxiao" unicode="&#58882;" d="M512 880.0256C238.3872 880.0256 15.9744 657.6128 15.9744 384S238.3872-112.0256 512-112.0256 1008.0256 110.3872 1008.0256 384 785.6128 880.0256 512 880.0256z m252.7232-815.9232c-72.0896-56.7296-161.1776-87.4496-252.7232-87.4496-224.8704 0-407.9616 183.0912-407.9616 407.9616 0 92.5696 31.744 183.0912 90.112 255.7952l570.5728-576.3072zM267.264 710.4512c69.632 52.6336 156.2624 81.5104 244.736 81.5104 224.8704 0 407.9616-183.0912 407.9616-407.9616 0-89.4976-29.9008-177.152-84.1728-247.808L267.264 710.4512z m0 0"  horiz-adv-x="1024" />

    
    <glyph glyph-name="tubiaoku-" unicode="&#58987;" d="M926.72 615.525a35.055 35.055 0 0 1-21.51-6.975L764 517.11V249l140.445-90.72a35.55 35.55 0 0 1 22.5-7.74 31.905 31.905 0 0 1 30.78 32.85V582.675a31.905 31.905 0 0 1-31.005 32.85zM637.415 654.27h-522A49.995 49.995 0 0 1 66.5 603.4200000000001v-440.64a49.995 49.995 0 0 1 48.915-50.85h522a49.995 49.995 0 0 1 48.915 50.85V603.4200000000001a49.995 49.995 0 0 1-48.915 50.85zM212.75 442.5A65.25 65.25 0 1 0 278 507.75 65.25 65.25 0 0 0 212.75 442.5z"  horiz-adv-x="1024" />

    
    <glyph glyph-name="wenhaoyuanyiwenmianxing" unicode="&#59556;" d="M512-71.111111C260.636444-71.111111 56.888889 132.636444 56.888889 384S260.636444 839.111111 512 839.111111s455.111111-203.747556 455.111111-455.111111-203.747556-455.111111-455.111111-455.111111z m0 199.111111c16.867556 0 30.549333 5.461333 41.073778 16.355556 10.524444 10.922667 15.815111 24.433778 15.815111 40.533333 0 16.099556-5.262222 29.354667-15.815111 39.736889-10.524444 10.410667-24.206222 16.099556-41.073778 17.152-22.129778-1.052444-38.456889-10.922667-48.981333-29.610667-10.524444-18.716444-10.524444-37.404444 0-56.120889 10.524444-18.688 26.851556-28.046222 48.981333-28.046222z m43.576889 185.827556c0 3.271111-1.137778 12.657778-0.995556 11.320888-1.166222 11.832889 0.398222 22.357333 6.883556 32.512 4.721778 7.424 12.032 14.392889 22.954667 20.849778 64.227556 37.944889 87.722667 80.213333 86.385777 124.188445-1.991111 65.877333-50.517333 130.531556-155.761777 131.470222-87.978667 0.824889-145.806222-41.671111-159.488-121.457778a42.666667 42.666667 0 0 1 84.081777-14.421333c6.229333 36.124444 26.453333 51.000889 74.609778 50.574222 52.821333-0.483556 70.542222-24.092444 71.281778-48.696889a20.48 20.48 0 0 0-3.242667-11.975111c-5.888-10.581333-18.659556-22.869333-41.244444-36.209778-22.328889-13.169778-39.509333-29.553778-51.569778-48.497778-18.744889-29.44-22.840889-58.567111-19.655111-88.177777 0.483556-4.465778 0.426667-3.896889 0.426667-1.479111a42.666667 42.666667 0 1 1 85.333333 0z"  horiz-adv-x="1024" />

    
    <glyph glyph-name="xitongguanli" unicode="&#58931;" d="M888.34238281 834H174.78740234C112.63994141 834 62 783.3609375 62 721.21259766v-506.39414063c0-62.14833984 50.6390625-112.78740234 112.78740234-112.78740234h713.55498047c62.14833984 0 112.78828125 50.6390625 112.78828125 112.78740234V721.21259766C1003.43164063 783.36005859 952.79257812 834 888.34238281 834z m50.63994141-619.18154297c0-27.62138672-23.01855469-48.33720703-48.33808594-48.33720703H177.08925781c-27.62138672 0-48.33720703 23.01767578-48.33720703 48.33720703V721.21259766c0 27.62138672 23.01855469 48.33720703 48.33720703 48.33720703h713.55498047c27.62138672 0 48.33808594-23.01855469 48.33808594-48.33720703v-506.39414063z m-80.5631836-214.06640625H678.8796875V19.166015620000053c0 16.11298828-11.50927734 27.62138672-27.62138672 27.62138672h-257.80078125c-16.11210938 0-27.62138672-11.50839844-27.62138672-27.62138671v-18.41396485H188.59853516c-18.41396484 0-32.22509766-13.81113281-32.22509766-32.22509765s13.81113281-32.22509766 32.22509766-32.22509766h669.82060546c18.41484375 0 32.22509766 13.81025391 32.22509766 32.22509766s-13.81025391 32.22509766-32.22509766 32.22509765zM370.43984375 592.3122070300001c-29.92324219 0-52.94091797-23.01855469-52.94091797-52.94179687s23.01767578-52.94091797 52.94091797-52.94091797 52.94091797 23.01855469 52.94091797 52.94091797-23.01767578 52.94179687-52.94091797 52.94179687z m0-85.16601562c-18.41396484 0-32.22509766 13.81025391-32.22509766 32.22421875s13.81113281 32.22509766 32.22509766 32.22509765 32.22509766-13.81025391 32.22509766-32.22509765-16.11210938-32.22421875-32.22509766-32.22421875z m476.47089844 94.37255859l-18.41484375 2.30273438v4.60283203l13.81113281 11.50927734c2.30185547 4.60371094 4.60371094 6.90556641 6.90556641 11.50927734 2.30185547 4.60283203 0 9.20654297-2.30273438 13.81025391l-11.50839844 20.71582031c-6.90556641 6.90556641-16.11210938 11.50927734-23.01855468 6.90556641l-18.41308594-6.90556641-2.30273438 2.30273438 6.90556641 18.41308594c2.30273438 4.60458984 2.30273438 6.90644531 0 11.50927734s-4.60371094 9.20742187-6.90556641 11.50927734l-20.71582031 11.50927735c-9.20742187 4.60283203-18.41396484 2.30185547-23.01855469-4.60371094l-11.50839843-13.81113281h-4.60371094l-4.60283203 18.41484375c0 9.20654297-9.20742187 16.11210938-16.11298828 16.11210937H685.78613281c-9.20742187 0-16.11298828-6.90556641-16.11298828-16.11210937l-2.30185547-18.41484375h-4.60283203l-11.50927734 13.81113281c-4.60371094 6.90556641-13.81113281 9.20654297-23.01855469 4.60371094l-20.71582031-11.50927735c-4.60283203-2.30185547-6.9046875-6.90556641-6.9046875-11.50927734v-11.50839844l6.9046875-18.41484375-2.30185547-2.30185547-20.71582031 6.90556641h-11.50839844c-4.60371094-2.30185547-9.20742187-4.60371094-11.50927734-6.90556641l-11.50927735-20.71582031c-2.30185547-4.60371094-2.30185547-9.20742187-2.30185547-13.81025391 2.30273438-4.60371094 4.60371094-9.20742187 6.90556641-9.20742187l13.81113281-13.81113281v-4.60371094l-18.41484375-4.60283203c-9.20654297 0-16.11210938-9.20742187-16.11210937-16.11298828v-25.31953125c0-9.20742187 6.90556641-16.11298828 16.11210937-16.11298828l18.41484375-2.30185547v-4.60283203l-13.81113281-11.50927735c-2.30185547-2.30185547-4.60371094-4.60371094-6.90556641-9.20742187-2.30185547-4.60371094 0-9.20654297 2.30273438-13.81025391l11.50839844-20.71582031c4.60371094-9.20742187 16.11210938-11.50927734 20.71582031-6.90556641l18.41484375 6.9046875 2.30185547-2.30185547-6.90556641-18.41308593c-2.30273438-4.60458984-2.30273438-6.90644531 0-11.51015625s4.60371094-9.20654297 6.90556641-11.50839844l20.71582031-11.50927735c4.60371094-2.30185547 9.20742187-2.30185547 13.8102539-2.30185546 4.60371094 2.30273438 9.20742187 4.60371094 9.20742188 6.9055664l11.50927734 13.81113281h4.60371094l4.60283203-18.41484375c0-9.20742187 9.20742187-16.11210938 16.11298828-16.11210937h25.31953125c9.20742187 0 16.11298828 6.9046875 16.11298829 16.11210937l2.30185546 18.41484375h4.60283203l11.50927735-13.81113281c2.30185547-2.30185547 4.60371094-4.60371094 9.20742187-6.9055664 4.60371094-2.30185547 9.20654297 0 13.81025391 2.30273437l20.71582031 11.50839844c9.20742187 4.60371094 11.50927734 16.11210938 6.90556641 20.71582031l-6.9046875 18.41484375 2.30185547 2.30097656 18.41396484-6.9046875c6.90556641-4.60371094 18.41396484 0 23.01855469 6.9046875l11.50839844 20.71582032c4.60371094 9.20830078 2.30185547 18.41484375-4.60371094 23.01855468l-13.81113281 11.50927735v4.60371093l18.41484375 4.60283204c9.20742187 0 16.11210938 9.20742187 16.11210937 16.11298828v25.31953125c4.60371094 11.50927734-2.30185547 18.41396484-11.50839844 18.41396484z m-9.20742188-34.52607422l-29.92324218-6.9055664-2.30185547-9.20742188c0-4.60371094-2.30185547-9.20742187-4.60371094-16.11210937l-2.30185547-9.20742188 23.01855469-18.41396484-4.60371094-9.20742188-18.41484375 6.90556641-9.20654297 6.9046875-9.20742187-9.20654297c-4.60371094-4.60371094-6.90556641-9.20742187-11.50927735-11.50927734l-9.20654297-6.90556641 6.9046875-9.20654297 6.90556641-18.41484375-9.20742187-4.60371094-13.81025391 13.81113282-4.60371094 9.20742187-11.50927734-4.60371094c-6.9046875-2.30273438-11.50839844-4.60371094-16.11210938-4.60371093l-9.20742187-2.30273438-4.60371094-29.92236328h-11.50839844l-6.9055664 29.92324219-6.90556641 2.30185547c-4.60371094 0-9.20742187 2.30185547-16.11210937 4.60371093l-11.50927735 4.60371094-4.60371094-9.20742187-11.50839843-13.81113282-9.20742188 4.60371094 6.90556641 18.41484375 6.9046875 9.20654297-11.50839844 4.60371094c-4.60371094 4.60371094-9.20742187 6.90556641-11.50927734 11.50927734l-6.90556641 11.50839844-9.20654297-4.60283203-18.41484375-6.90556641-4.60371094 9.20654297 13.81113282 13.81113281 9.20742187 6.90556641-2.30273437 9.20654297c-2.30097656 6.90556641-4.60283203 11.50927734-4.60283203 16.11298828l-2.30273438 9.20742187-29.92236328 4.60371094v11.50839844l29.92324219 6.9055664 2.30185547 9.20742188c0 4.60283203 2.30185547 9.20654297 4.60371093 16.11210937l4.60371094 11.50927735h-11.50927734l-13.81113282 11.50839844 4.60371094 9.20742187 18.41484375-6.90556641 9.20654297-4.60371093 6.90556641 9.20742187c4.60371094 4.60371094 6.90556641 9.20742187 11.50927734 11.50927735l9.20654297 6.9055664-6.9046875 9.20654297-6.90556641 18.41484375 9.20742188 6.9046875 13.8102539-13.81025391 4.60371094-9.20742187 11.50927735 4.60371094c6.9046875 2.30185547 11.50839844 4.60371094 16.11210937 4.60371093l9.20742188 2.30185547 4.60371093 29.92324219h11.50839844l6.90556641-29.92324219 9.20742187-2.30273437c4.60371094 0 9.20654297-2.30097656 16.11210938-4.60283203l9.20742187-2.30185547 18.41396485 23.01855469 9.20742187-4.60371094-6.90556641-18.41484375-6.9046875-9.20742188 9.20654297-6.9046875c4.60371094-4.60371094 9.20742187-6.90556641 11.50927735-11.50927734l9.20742187-9.20742188 9.20654297 2.30273438 18.41484375 6.9046875 4.60371094-9.20742188-13.81113281-13.8102539-9.20742188-4.60371094 4.60371094-11.50927734c2.30185547-6.90556641 4.60371094-11.50839844 4.60371094-16.11210938l2.30185546-9.20742187 29.92324219-4.60371094v-11.50839844zM699.59550781 636.04570312c-34.52607422 0-62.14746094-27.62138672-62.14746093-62.14746093s27.62138672-62.14921875 62.14746093-62.14921875 62.14833984 27.62138672 62.14833985 62.14833984-27.62138672 62.14833984-62.14746094 62.14833984z m0-101.278125c-20.71582031 0-36.82792969 16.11210938-36.82792968 36.82792969s16.11210938 36.82880859 36.82792968 36.8288086 36.82880859-16.11210938 36.8288086-36.8288086-18.41396484-36.82792969-36.8288086-36.82792969zM582.20439453 366.73652344000004l-9.20654297 2.30185547v2.30185547l6.9046875 6.9055664c2.30273438 2.30185547 4.60371094 2.30185547 4.60371094 6.9046875v6.90556641l-6.90556641 11.50927734c-2.30185547 2.30185547-2.30185547 4.60371094-6.9046875 4.60371094h-6.9055664l-9.20742188-4.60371094-2.30185547 2.30185547 2.30273438 9.20654297c2.30097656 2.30273438 2.30097656 4.60371094 0 6.90556641 0 2.30273438-2.30273438 4.60371094-4.60458984 6.9055664l-11.50839844 6.90556641c-4.60371094 2.30185547-11.50927734 0-11.50927735-2.30273438l-6.9055664-9.20654297h-2.30185547l-2.30185547 9.20742188c0 4.60371094-4.60283203 9.20742187-9.20654297 9.20742187h-13.81113281c-4.60371094 0-9.20742187-4.60371094-9.20742188-9.20742187l-2.30097656-11.50927734h-2.30273437l-6.9046875 6.9055664c-2.30273438 4.60371094-9.20742187 6.90556641-13.81113282 4.60371094l-2.30185547-2.30185547v9.20742188l-6.9046875 16.11210937 2.30097657 2.30273438 13.81113281-4.60458985c6.90556641-4.60371094 16.11298828-2.30185547 20.71582031 4.60371094l11.50927735 18.41396484c4.60371094 6.90556641 2.30185547 16.11298828-4.60371094 18.41484375l-11.50839844 9.20742188v2.30185547l13.81025391 2.30097656c9.20742187 0 13.81113281 6.90556641 13.81113281 13.81113281v20.71582031c0 6.90556641-6.90556641 13.81113281-13.81113281 13.81113282l-16.11210938 2.30185547v2.30185546l11.50839844 9.20654297c2.30273438 2.30273438 6.90556641 4.60371094 6.90556641 9.20742188s0 6.90556641-2.30185547 11.50927734l-11.50927735 18.41396485c-2.30097656 2.30273438-4.60283203 6.90556641-9.20654297 6.9055664h-9.20742187l-16.11210938-6.9055664-2.30273437 2.30273437 6.90556641 20.71582031c2.30273438 2.30097656 2.30273438 6.9046875 2.30273437 11.50839844s-2.30273438 6.90556641-6.90556641 9.20742188l-18.41484375 11.50839843c-2.30185547 2.30273438-6.90556641 2.30273438-11.50839843 2.30273438s-6.90556641-2.30273438-6.90556641-4.60458985l-11.50927734-13.8102539h-2.30185547l-2.30185547 13.8102539c0 9.20742187-6.90556641 13.81113281-13.81025391 13.81113282h-20.71582031c-9.20742187 0-13.81113281-6.90556641-13.81113281-13.81113282l-4.60371094-13.8102539h-2.30185547l-9.20742187 11.50927734c-2.30185547 2.30097656-4.60371094 6.9046875-9.20654297 6.9046875s-6.90556641 0-11.50927735-2.30185547l-20.71582031-11.50839843c-6.90556641-4.60371094-9.20742187-13.81113281-4.60371094-18.41484375l6.90556641-16.11210938-2.30273437-2.30185547-16.11210938 4.60371094c-2.30185547 2.30185547-6.90556641 2.30185547-11.50839844 2.30185547s-6.90556641-2.30273438-9.20742187-6.90556641l-11.50927735-18.41396484c-2.30185547-6.90556641 0-16.11298828 4.60371094-18.41484375l13.81113281-9.20742188v-2.30097656l-13.81113281-2.30273438c-9.20742187 0-13.81025391-6.9046875-13.8102539-13.8102539v-20.71582031c0-6.90556641 6.9046875-13.81113281 13.8102539-13.81113282l16.11298828-2.30185547v-2.30185546l-11.50927734-9.20654297c-6.90556641-4.60371094-9.20742187-13.81113281-4.60371094-20.71582032l11.50927735-18.41484375c2.30185547-2.30273438 4.60371094-6.90556641 9.20654296-6.9055664h9.20742188l16.11298828 6.9055664 2.30185547-2.30273437-9.20742188-20.71582031c-2.30273438-2.30097656-2.30273438-6.9046875-2.30273437-11.50839844s2.30273438-6.90556641 6.90644531-9.20742188l18.41396485-11.50839843c6.90556641-4.60371094 16.11298828-2.30273438 18.41396484 4.60283203l11.50927734 11.50927734h2.30185547l2.30185547-13.8102539c0-9.20742187 6.90556641-13.81113281 13.81113281-13.81113282h20.71582032c9.20742187 0 13.81025391 6.90556641 13.8102539 13.81113282l2.30273438 16.11210937h2.30097656l9.20742187-11.50927734c2.30185547-2.30185547 4.60371094-6.9046875 9.20742188-6.9046875s6.9046875 0 11.50839844 2.30185547l11.50927734 6.9046875v-4.60371094l4.60371094-9.20654297-2.30273438-2.30273437-9.20654297 2.30273437c-2.30185547 2.30185547-4.60371094 2.30185547-6.9055664 0-2.30185547 0-4.60283203-2.30273438-6.9046875-4.60371094l-6.90556641-11.50927734c-2.30273438-2.30185547-2.30273438-4.60371094 0-6.9046875 0-2.30273438 2.30185547-4.60371094 4.60371094-4.60371094l9.20654297-6.9055664v-2.30185547l-9.20654297-2.30185547c-4.60371094 0-9.20742187-4.60371094-9.20742188-9.20742188v-13.8102539c0-4.60371094 4.60371094-9.20742187 9.20742188-9.20742188l11.50839844-2.30185547v-2.30185547l-6.9046875-6.9055664c-2.30273438-2.30097656-4.60371094-2.30097656-4.60371094-6.9046875v-6.90556641l6.9046875-11.50927734c2.30273438-2.30185547 2.30273438-4.60371094 6.90556641-4.60371094h6.9055664l9.20742188 4.60371094 2.30185547-2.30185547-2.30273438-9.20654297c-2.30097656-2.30273438-2.30097656-4.60371094 0-6.90556641s2.30273438-4.60371094 4.60458984-6.9055664l11.50839844-6.90556641c4.60371094-2.30185547 11.50927734 0 11.50927735 2.30273438l6.9055664 9.20654297h2.30185547l2.30097656-9.20742188c0-4.60371094 4.60371094-9.20654297 9.20742188-9.20654297h13.81113281c4.60371094 0 9.20654297 4.60283203 9.20654297 9.20654297l2.30273437 11.50927734h2.30097657l6.9055664-6.9055664c2.30185547-2.30185547 2.30185547-4.60371094 6.90556641-4.60371094h6.90556641l11.50839843 6.90556641c2.30273438 2.30185547 4.60371094 2.30185547 4.60371094 6.9055664v6.90556641l-4.60371094 9.20654297 2.30273438 2.30273437 9.20654297-2.30273437c4.60371094-2.30185547 11.50839844 0 13.8102539 4.60371094l6.90556641 11.50927734c2.30273438 4.60371094 0 11.50839844-2.30185547 11.50839844l-9.20654297 6.9055664v2.30273438l9.20654297 2.30097656c4.60371094 0 9.20742187 4.60371094 9.20742188 9.20742188V359.83007812000005c0 2.30273438-4.60371094 6.90556641-9.20742188 6.90556641z m-154.21992187 87.46875l4.60371093-16.11298828-9.20742187-4.60371094-11.50839844 13.8102539-4.60371094 6.90556641-9.20742187-2.30185547c-4.60371094-2.30185547-9.20742187-2.30185547-13.81025391-4.60371094l-6.9055664-2.30097656-2.30273438-25.32041015h-9.20654297l-4.60371094 25.32041015-6.9046875 2.30097656c-4.60371094 0-9.20742187 2.30273438-13.81113281 4.60371094l-11.50927734 4.60371094-2.30185547-9.20742188-11.50839844-13.8102539-6.9055664 4.60371094 4.60371093 16.11210937 4.60371094 6.90556641-6.90556641 6.9055664c-4.60371094 2.30185547-6.90556641 6.90556641-11.50927734 11.50839844l-6.9046875 6.90556641-6.90556641-4.60371094-16.11298828-6.9046875-4.60371093 9.20654297 11.50927734 11.50927734 9.20742187 4.60371094-2.30273437 9.20654297c-2.30097656 4.60371094-2.30097656 9.20742187-4.60283203 13.81113281l-2.30185547 6.90556641-25.31953125 4.60371094v9.20654296l25.31953125 4.60371094 2.30185547 6.90556641c0 4.60371094 2.30185547 9.20742187 4.60371094 13.81113281l2.30185546 9.20654297-6.9055664 4.60371094-13.81113281 11.50927734 4.60371093 6.9046875 16.11298828-4.60283203 6.90556641-4.60371094 6.9046875 6.90556641c2.30273438 4.60283203 6.90556641 6.9046875 11.50927734 11.50839844l6.90556641 6.9055664-4.60371094 6.90556641-4.60371093 16.11210937 6.9055664 2.30273438 11.50839844-11.50927735 4.60371094-6.9055664 6.9055664 2.30185547c4.60371094 2.30185547 9.20742187 2.30185547 13.81113282 4.60371093h9.20654296l4.60371094 25.31953125h9.20742188l4.60371093-25.31953125 6.90556641-2.30273437c4.60283203 0 9.20654297-2.30097656 13.81025391-4.60283203l9.20742187-2.30273438 4.60371094 6.90644532 11.50839844 13.8102539 9.20742187-4.60371094-4.60371094-16.11210937-4.60371093-6.90556641 4.60371093-6.9055664c4.60371094-2.30185547 6.90556641-6.90556641 11.50927735-11.50839844l6.9055664-6.90556641 6.9046875 4.60371094 16.11298829 6.9046875 4.60371093-9.20654297-11.50927734-11.50927734-11.50927734-2.30185547 2.30273437-9.20654297c2.30097656-4.60371094 2.30097656-9.20742187 4.60283203-13.81113281l2.30273438-6.90556641 25.31865234-4.60371094v-9.20654296l-25.31953125-4.60371094-2.30185547-6.90556641c0-4.60371094-2.30185547-9.20742187-4.60371094-13.81113281l-2.30185546-9.20654297 6.9055664-4.60371094 13.81113281-11.50927734-4.60371093-9.20654297-16.11298828 6.9046875-6.9046875 4.60371094-6.90556641-6.90556641c-2.30273438-4.60283203-6.90556641-6.9046875-11.50927734-11.50839844l-6.90556641-6.9055664 6.90556641-6.90556641z m149.61621093-108.18457032l-16.11210937-2.30273437v-4.60283203c0-2.30185547-2.30185547-6.90556641-2.30185547-9.20742188l-2.30185547-4.60371093 13.81113281-9.20654297-2.30273437-4.60371094-11.50839844 2.30185547-4.60371094 2.30185547-6.9055664-6.90556641-6.9046875-6.9055664-4.60371094-4.60371094 4.60371094-4.60371094 4.60283203-9.20654297-4.60283203-2.30273437-6.90556641 6.90644531v6.9046875l-9.20742187-4.60283203c-2.30185547 0-6.90556641-2.30273438-9.20742188-2.30273438h-4.60283203l-2.30273438-16.11210937h-6.9046875l-2.30185546 16.11298828h-4.60371094c-2.30185547 0-6.90556641 2.30185547-9.20742188 2.30185547l-6.9046875 2.30097656-2.30273437-4.60283203-6.9046875-9.20742188-4.60371094 2.30185547 4.60371094 9.20742188 4.60371094 4.60283203-4.60371094 4.60371094-6.90556641 6.9055664-4.60371094 4.60371094-16.11210937-6.90556641-9.20742188 9.20742188 9.20742188 6.90556641 4.60371094 2.30097656-2.30273438 6.9055664c0 2.30273438-2.30097656 6.90556641-2.30097656 9.20742188v4.60371094l-16.11298828 2.30185547v6.9055664l16.11298828 2.30097656v4.60371094c0 2.30273438 2.30185547 6.90556641 2.30185547 9.20742188l2.30185547 6.9055664-6.90556641 2.30185547-6.90556641 6.9046875 2.30273438 4.60371094 9.20654297-2.30185547 4.60371094-4.60283203 4.60283203 4.60283203 6.9055664 6.90556641 4.60371094 4.60371093-2.30185547 4.60371094-4.60371094 9.20742188 4.60371094 2.30097656 6.90556641-6.9046875v-9.20742188l11.50927734 4.60371094c2.30185547 0 6.9046875 2.30185547 9.20654297 2.30185547h4.60371094l2.30273437 16.11210938h6.9046875l2.30185547-16.11210938h4.60371094c2.30185547 0 6.9046875-2.30273438 9.20654297-2.30273437l4.60371094-2.30097657 4.60371093 4.60371094 4.60371094 6.90556641 4.60371094-2.30273438-4.60371094-11.50839844-2.30273437-4.60371093 4.60458984-4.60371094 6.90556641-6.9046875 4.60283203-4.60371094 4.60371093 4.60371094 9.20742188 4.60283203 2.30185547-4.60283203-6.90556641-6.90556641-6.9055664-2.30273437 2.30273437-6.9046875c0-2.30185547 2.30097656-6.90556641 2.30097656-9.20742188v-4.60283203l16.11298828-2.30273437v-4.60283203zM499.34023437 385.15136719c-18.41396484 0-34.52695312-16.11298828-34.52695312-34.52695313s16.11298828-34.52695312 34.52695312-34.52695312 34.52695312 16.11210938 34.52695313 34.52695312-16.11298828 34.52607422-34.52695313 34.52607422z m1e-8-57.54550782c-11.50927734 0-20.71582031 9.20742187-20.71582032 20.71582032s9.20654297 20.71669922 20.71582031 20.71669922 20.71582031-9.20742187 20.71582032-20.71582032-9.20654297-20.71582031-20.71582032-20.71582031z"  horiz-adv-x="1071" />

    
    <glyph glyph-name="shanchu1" unicode="&#58971;" d="M853.4 562.5H199.8c-3.9 0-7-3.4-6.6-7.3l60.1-630c0-29.3 23.8-53.1 53.1-53.1H747c29.3 0 53.1 23.8 53.1 53.1l60.1 630c0.2 3.9-2.8 7.3-6.8 7.3zM388.8 5.1h-19.5c-13 0-23.6 10.6-23.6 23.6l-24.3 376c0 13 10.6 23.6 23.6 23.6h19.5c13 0 23.6-10.6 23.6-23.6l24.3-376c0-13-10.6-23.6-23.6-23.6z m171.3 23.6c0-13-10.6-23.6-23.6-23.6H517c-13 0-23.6 10.6-23.6 23.6v376c0 13 10.6 23.6 23.6 23.6h19.5c13 0 23.6-10.6 23.6-23.6v-376z m148.3 0c0-13-10.6-23.6-23.6-23.6h-19.5c-13 0-23.6 10.6-23.6 23.6l24.3 376c0 13 10.6 23.6 23.6 23.6h19.5c13 0 23.6-10.6 23.6-23.6l-24.3-376zM869.3 742.8l-705-162c-4-0.9-7.9 1.6-8.8 5.5l-8.8 38.5c-6.8 29.5 11.8 59.2 41.3 66L800 831.5c29.5 6.8 59.2-11.8 66-41.3l8.8-38.5c0.9-4-1.5-8-5.5-8.9zM386.5 768.7c-6.5 27.9 11 56.1 39 62.6l98.2 22.8c27.9 6.5 56.1-11 62.6-39l3.8-16.2 44.3 10.3-3.1 13.3c-11.7 50.4-62.5 82-112.8 70.3L413.6 868.4c-50.4-11.7-82-62.5-70.3-112.8l3-13.1 43.9 10.2-3.7 16z"  horiz-adv-x="1024" />

    
    <glyph glyph-name="wanshan" unicode="&#58895;" d="M534.641778-37.728711H193.308444a56.888889 56.888889 0 0 0-56.888888 56.888889V759.466667A56.888889 56.888889 0 0 0 193.308444 816.355556h546.133334A56.888889 56.888889 0 0 0 796.330667 759.466667v-444.484267a34.133333 34.133333 0 0 1 68.266666 0V759.466667A125.155556 125.155556 0 0 1 739.441778 884.622222H193.308444A125.155556 125.155556 0 0 1 68.152889 759.466667v-740.306489a125.155556 125.155556 0 0 1 125.155555-125.155556h341.333334a34.133333 34.133333 0 0 1 0 68.266667zM284.330667 645.688889l409.6 0 0-68.266667-409.6 0 0 68.266667ZM284.330667 440.888889l409.6 0 0-68.266667-409.6 0 0 68.266667ZM284.330667 236.088889l227.555555 0 0-68.266667-227.555555 0 0 68.266667ZM653.720238 145.061988l128.724861-128.724861-48.271823-48.271823-128.724861 128.724861 48.271823 48.271823ZM967.250256 190.540918l-225.268507-225.268507-48.271823 48.271823 225.268507 225.268507 48.271823-48.271823Z"  horiz-adv-x="1024" />

    
    <glyph glyph-name="deleteteam" unicode="&#59310;" d="M888 112H664c-4.4 0-8-3.6-8-8v-48c0-4.4 3.6-8 8-8h224c4.4 0 8 3.6 8 8v48c0 4.4-3.6 8-8 8zM373.5 385.6c-0.9 8.7-1.4 17.5-1.4 26.4 0 15.9 1.5 31.4 4.3 46.5 0.7 3.6-1.2 7.3-4.5 8.8-13.6 6.1-26.1 14.5-36.9 25.1-25.8 25.2-39.7 59.3-38.7 95.4 0.9 32.1 13.8 62.6 36.3 85.6 24.7 25.3 57.9 39.1 93.2 38.7 31.9-0.3 62.7-12.6 86-34.4 7.9-7.4 14.7-15.6 20.4-24.4 2-3.1 5.9-4.4 9.3-3.2 17.6 6.1 36.2 10.4 55.3 12.4 5.6 0.6 8.8 6.6 6.3 11.6-32.5 64.3-98.9 108.7-175.7 109.9-110.9 1.7-203.3-89.2-203.3-199.9 0-62.8 28.9-118.8 74.2-155.5-31.8-14.7-61.1-35-86.5-60.4-54.8-54.7-85.8-126.9-87.8-204-0.1-4.5 3.5-8.2 8-8.2h56.1c4.3 0 7.9 3.4 8 7.7 1.9 58 25.4 112.3 66.7 153.5 29.4 29.4 65.4 49.8 104.7 59.7 3.9 1 6.5 4.7 6 8.7zM824 412c0 109.4-87.9 198.3-196.9 200C516.3 613.7 424 522.8 424 412c0-62.8 29-118.8 74.2-155.5-31.7-14.7-60.9-34.9-86.4-60.4C357 141.4 326 69.2 324-7.8c-0.1-4.5 3.5-8.2 8-8.2h56c4.3 0 7.9 3.4 8 7.7 1.9 58 25.4 112.3 66.7 153.5C505.8 188.3 563 212 624 212c110.4 0 200 89.5 200 200z m-109.5-90.5C690.3 297.3 658.2 284 624 284s-66.3 13.3-90.5 37.5C509 346 495.7 378.6 496 413.3c0.3 32.8 13.4 64.5 36.3 88 24 24.6 56.1 38.3 90.4 38.7 33.9 0.3 66.8-12.9 91-36.6 24.8-24.3 38.4-56.8 38.4-91.4-0.1-34.2-13.4-66.3-37.6-90.5z"  horiz-adv-x="1024" />

    
    <glyph glyph-name="deleteuser" unicode="&#59311;" d="M678.3 240.6c24.2 13 51.9 20.4 81.4 20.4h0.1c3 0 4.4 3.6 2.2 5.6-30.8 27.6-65.6 49.7-103.7 65.8-0.4 0.2-0.8 0.3-1.2 0.5C719.2 378 759.6 451.3 759.6 534c0 137-110.8 248-247.5 248S264.7 671 264.7 534c0-82.7 40.4-156 102.6-201.1-0.4-0.2-0.8-0.3-1.2-0.5-44.7-18.9-84.8-46-119.3-80.6-34.5-34.5-61.5-74.7-80.4-119.5C147.9 88.5 138 42 137-5.8c-0.1-4.5 3.5-8.2 8-8.2h59.9c4.3 0 7.9 3.5 8 7.8 2 77.2 32.9 149.5 87.6 204.3C357 254.8 432.2 286 512.2 286c56.7 0 111.1-15.7 158-45.1 2.5-1.5 5.5-1.7 8.1-0.3zM512.2 362c-45.8 0-88.9 17.9-121.4 50.4-32.4 32.5-50.3 75.7-50.3 121.6 0 45.9 17.9 89.1 50.3 121.6S466.3 706 512.2 706s88.9-17.9 121.4-50.4c32.4-32.5 50.3-75.7 50.3-121.6 0-45.9-17.9-89.1-50.3-121.6C601.1 379.9 558 362 512.2 362zM880 124H640c-4.4 0-8-3.6-8-8v-56c0-4.4 3.6-8 8-8h240c4.4 0 8 3.6 8 8v56c0 4.4-3.6 8-8 8z"  horiz-adv-x="1024" />

    
    <glyph glyph-name="reset" unicode="&#59390;" d="M256 341.33333333999997H170.666667c0-185.002667 156.288-341.333333 341.333333-341.333333s341.333333 156.330667 341.333333 341.333333-156.288 341.333333-341.333333 341.333333V768.00000034L342.4 640.00000034 512 512.00000034V597.3333333400001c138.752 0 256-117.248 256-256s-117.248-256-256-256-256 117.248-256 256zM640 341.33333333999997c0 71.210667-56.704 128-128 128s-128-56.789333-128-128 56.704-128 128-128 128 56.789333 128 128z"  horiz-adv-x="1024" />

    
    <glyph glyph-name="laba" unicode="&#59108;" d="M512 384m-512 0a512 512 0 1 1 1024 0 512 512 0 1 1-1024 0ZM301 498.1h-72.1c-14.9 0-26.9-12.1-26.9-26.9v-161.7c0-14.9 12.1-26.9 26.9-26.9H301c16.1 0 31.9-3.9 46.1-11.5l175.8-132.5c12.9-7.8 29.4 1.5 29.4 16.6V625.5c0 15.1-16.5 24.4-29.4 16.6L347.1 509.6c-14.2-7.5-30-11.5-46.1-11.5zM806 363.8H676.4c-8.8 0-16 7.2-16 16v8.4c0 8.8 7.2 16 16 16H806c8.8 0 16-7.2 16-16v-8.4c0-8.8-7.2-16-16-16zM719.1 576.1l-64.7-64.7c-6.2-6.2-16.4-6.2-22.6 0l-6 6c-6.2 6.2-6.2 16.4 0 22.6l64.7 64.7c6.2 6.2 16.4 6.2 22.6 0l6-6c6.2-6.2 6.2-16.4 0-22.6zM719.1 191.9l-64.7 64.7c-6.2 6.2-16.4 6.2-22.6 0l-6-6c-6.2-6.2-6.2-16.4 0-22.6l64.7-64.7c6.2-6.2 16.4-6.2 22.6 0l6 6c6.2 6.2 6.2 16.4 0 22.6z"  horiz-adv-x="1024" />

    
    <glyph glyph-name="liebiaozonglantubiao_jingqing" unicode="&#58955;" d="M793.6-15.36h-563.2V424.96C230.4 558.08 358.4 665.6 512 665.6s281.6-107.52 281.6-245.76v-435.2z m-66.56 440.32c0 97.28-97.28 179.2-215.04 179.2S296.96 522.24 296.96 424.96v-373.76M512 742.4c-20.48 0-30.72 15.36-30.72 35.84V865.28c0 15.36 10.24 30.72 30.72 30.72s30.72-15.36 30.72-30.72v-87.04c0-20.48-10.24-35.84-30.72-35.84zM911.36 389.12c-10.24 0-25.6 5.12-30.72 20.48-5.12 15.36 0 35.84 15.36 40.96l81.92 35.84c15.36 5.12 35.84 0 40.96-15.36 5.12-15.36 0-35.84-15.36-40.96l-81.92-40.96h-10.24zM107.52 389.12c-5.12 0-10.24 0-15.36 5.12L20.48 424.96C5.12 435.2-5.12 450.56 5.12 471.04c5.12 15.36 25.6 20.48 40.96 15.36l76.8-35.84c15.36-5.12 25.6-25.6 15.36-40.96-5.12-10.24-15.36-20.48-30.72-20.48zM798.72 645.12c-10.24 0-15.36 5.12-20.48 10.24-15.36 10.24-15.36 35.84 0 46.08l61.44 61.44c10.24 15.36 35.84 15.36 46.08 0 15.36-10.24 15.36-35.84 0-46.08L819.2 655.36c-5.12-5.12-15.36-10.24-20.48-10.24zM230.4 645.12c-10.24 0-20.48 5.12-25.6 10.24L143.36 716.8c-10.24 15.36-10.24 35.84 0 46.08 15.36 10.24 35.84 10.24 46.08 0l61.44-66.56c10.24-15.36 10.24-35.84 0-46.08-5.12 0-15.36-5.12-20.48-5.12zM870.4-128H153.6c-20.48 0-30.72 15.36-30.72 30.72s15.36 30.72 30.72 30.72h716.8c20.48 0 30.72-15.36 30.72-30.72s-15.36-30.72-30.72-30.72z"  horiz-adv-x="1024" />

    
    <glyph glyph-name="fenpeiyonghu" unicode="&#59492;" d="M973.824 33.28h-397.824c-18.432 0-35.84-12.288-41.472-29.696-7.168-22.016-3.584-38.4 11.776-54.272l53.248-53.248c6.144-6.144 11.776-11.776 23.04-11.776 4.608 0 16.896 5.632 23.04 11.776 11.264 11.264 11.264 34.304 0 45.568l-35.84 35.84h364.544c16.896 0 27.648 10.752 27.648 27.648s-11.264 28.16-28.16 28.16zM556.032 140.8h397.824c18.432 0 35.84 12.288 41.472 29.696 7.168 22.016 3.584 38.4-11.776 54.272l-59.904 59.904c-11.264 11.264-34.304 11.264-45.568 0s-11.264-34.304 0-45.568l35.84-35.84h-357.888c-16.896 0-27.648-10.752-27.648-27.648-0.512-16.896 10.24-34.816 27.648-34.816zM179.712 225.28c76.288 79.872 179.2 125.44 281.088 125.44 76.288 0 147.456 28.16 200.704 78.336 53.248 50.688 82.432 118.784 82.432 191.488 0 151.552-118.784 270.336-270.336 270.336-152.576 0-276.48-121.344-276.48-270.336 0-92.672 49.152-181.76 125.44-225.792l9.728-5.632-10.752-3.584c-186.368-64.512-316.416-251.904-316.416-456.192 0-16.384 10.752-26.624 26.624-26.624s26.624 10.752 26.624 26.624c0.512 108.032 44.544 215.552 121.344 295.936z m77.824 395.264c0 115.712 94.208 209.92 209.92 209.92 111.616 0 209.92-98.304 209.92-209.92 0-117.248-96.256-216.064-209.92-216.064-116.224 0-209.92 97.28-209.92 216.064z"  horiz-adv-x="1024" />

    
    <glyph glyph-name="alarm" unicode="&#58953;" d="M1019.3408 700.7744c-207.872 0-311.04 78.2848-386.4064 135.5776C589.1072 869.632 554.4448 896 514.0992 896c-38.912 0-68.5056-24.832-105.7792-56.32C338.3296 780.9536 242.5856 700.7232 8.704 700.7232c-4.864 0-6.7072-1.0752-7.0144-1.5872-0.256-0.768-1.536-4.7616 7.0656-20.1216 6.6048-11.6736 36.864-28.9792 50.944-41.5232 38.2464-33.8944 65.0752-72.704 71.68-105.3696h-31.1808V8.70399999999995h384.2048v-85.0944H426.3936V-128h172.1856v51.6096h-58.2144V8.70399999999995h386.4064V532.1216h-33.2288c7.8848 36.608 51.2512 80.0768 87.1424 116.0192 12.6976 12.6976 24.6784 24.6784 33.0752 34.4576 9.6256 11.1104 11.3664 15.7696 11.7248 17.408a19.8144 19.8144 0 0 1-6.144 0.768z m-144.128-640.4608H151.808V480.4608h723.4048v-420.1472zM409.5488 746.0864h203.1104v-80.2816l-0.4608-5.7344v-6.8608h0.1024c0-19.2-11.3664-33.9456-45.8752-55.1936a365.9776 365.9776 0 0 0-49.8688-25.7024l-2.5088-1.024-2.7136 1.024a359.68 359.68 0 0 0-49.664 25.6512c-34.56 21.248-52.1216 41.8304-52.1216 60.928V746.0864zM380.1088 247.808l88.3712-88.4224 133.2224 134.0928 122.7776-122.88 36.5568 36.4032-159.5392 159.5392-133.12-133.9392-88.2688 88.1152-114.0736-114.0224 36.4544-36.5056z"  horiz-adv-x="1027" />

    
    <glyph glyph-name="huizhi" unicode="&#58972;" d="M96 384C96 612.7 283.3 800 512 800s416-187.2 416-416-187.2-416-416-416c-82.7 0.2-163.5 24.7-232.3 70.5-2.2 1.5-5 1.9-7.5 1.3L146 6.7c-6.9-1.8-13.2 4.5-11.4 11.4l33.1 126.2c0.7 2.6 0.2 5.3-1.3 7.5C120.7 220.6 96.2 301.3 96 384z m166.5 41.6l177.9-160.1c11.6-10.4 30.1-2.2 30.1 13.4v74.9c0 5.2 4.3 9.4 9.5 9.3 122-3.4 241.1-71.7 281.7-171.3v5.1c0 157.8-125.5 286.2-282.1 291-5.1 0.2-9.1 4.2-9.1 9.3v75.2c0 15.6-18.5 23.8-30.1 13.4L262.5 425.6z m0 0"  horiz-adv-x="1024" />

    
    <glyph glyph-name="youxiao" unicode="&#58991;" d="M510.976-126.012235C229.978353-126.012235 0 103.966118 0 385.024 0 666.021647 229.978353 896 510.976 896c281.057882 0 511.036235-229.978353 511.036235-510.976 0-281.057882-229.978353-511.036235-511.036235-511.036235z m287.442824 613.135059a39.574588 39.574588 0 0 1-55.958589 56.018823l-275.395764-275.456L323.584 411.105882a39.634824 39.634824 0 0 1-56.018824-55.958588l171.550118-171.489882a39.393882 39.393882 0 0 1 55.958588 0l303.344942 303.405176z"  horiz-adv-x="1024" />

    
    <glyph glyph-name="nav-text" unicode="&#58926;" d="M732.49285083 755.39637741l8.4690644-199.0354095h-25.3081417q-16.93813036 97.22090398-50.6162826 124.93109053c-19.66209849 18.4734577-60.54638609 27.75971309-122.36808481 27.75971309h-59.08534778v-606.3924839q0-64.86759011 16.83907651-83.29152127c14.01605529-12.38167411 43.60825573-20.0706936 88.57849592-23.16611157v-23.16611232H272.53842457v23.3023107q67.4553599 4.48216567 84.39349024 27.75971309c11.14350677 9.28625539 16.83907651 40.04233334 16.8390765 92.57777666V709.16320661h-58.98629471q-92.86255465 0-122.36808403-27.7597131c-22.58417355-18.4734577-39.42325007-60.22446204-50.61628338-124.93109051H116.4921875L124.96125268 755.5078125h607.53159814zM987.92678526 401.10715779l4.66789058-111.05123436h-14.10272635c-6.32703504 36.204015-15.67519898 59.37012654-28.23021675 69.72120638q-16.50477121 15.53900062-68.33445866 15.47709282h-33.00954321v-338.36638715c0-24.13188292 3.12018199-39.62135699 9.44721781-46.55509406 7.88712642-6.94611908 24.34237109-11.21779658 49.45240585-12.91408634v-12.91408555H731.22991945v12.9017043c25.11003476 1.708671 40.78523452 6.83468399 47.11226955 15.47709205 6.19083667 5.12601299 9.44721702 22.28701355 9.44721779 51.68110708V375.21707734999995h-32.99716118q-51.8420687 0-68.33445864-15.47709283-18.83252626-15.53900062-28.23021676-69.72120562h-14.11510838l4.66789058 111.05123362z"  horiz-adv-x="1134" />

    
    <glyph glyph-name="mulu" unicode="&#59016;" d="M834.1 837.5H666.3c-15.4 0-19.1-8.9-8.2-19.8l184.2-184.2c10.9-10.9 19.8-7.2 19.8 8.2V809.5c-0.1 15.4-12.6 28-28 28zM842.3 521.6L546.2 817.7c-10.9 10.9-32.4 19.8-47.7 19.8H162.8c-15.4 0-28-12.6-28-28V770h55.9v11.5h306.9c2.5-0.4 7.3-2.4 9.4-3.9l295.1-295c1.5-2.1 3.5-6.9 3.9-9.5v-474.7H190.8V775h-55.9v-804.5c0-15.4 12.6-28 28-28h671.3c15.4 0 28 12.6 28 28V473.9c-0.2 15.4-9.1 36.9-19.9 47.7zM683.4 319.6H275.9c-5.3 0-9.5 3.3-9.5 7.4v44.8c0 4.1 4.3 7.4 9.5 7.4h407.7c2.5 0 5-0.8 6.8-2.2 1.8-1.4 2.8-3.3 2.8-5.2V327c-0.2-4.1-4.5-7.3-9.8-7.4zM683.4 128.9H275.9c-5.3 0-9.5 3.3-9.5 7.4v44.8c0 4.1 4.3 7.4 9.5 7.4h407.7c2.5 0 5-0.8 6.8-2.2 1.8-1.4 2.8-3.3 2.8-5.2v-44.8c-0.2-4-4.5-7.3-9.8-7.4zM463.2 510.3H270.9c-2.5 0-4.5 3.3-4.5 7.4v44.8c0 2 0.5 3.8 1.3 5.2 0.8 1.4 2 2.2 3.2 2.2h192.5c1.2 0 2.3-0.8 3.2-2.2 0.8-1.4 1.3-3.3 1.3-5.2v-44.8c-0.1-4.1-2.2-7.4-4.7-7.4z"  horiz-adv-x="1024" />

    
    <glyph glyph-name="nav-voice" unicode="&#58904;" d="M511.3 192.03333333c-109.7 0-198.9 89.2-198.9 198.9V498.83333333c0 22.1 17.9 40 40 40s40-17.9 40-40v-107.9c0-65.6 53.3-118.9 118.9-118.9S630.2 325.33333332999996 630.2 390.93333333V654.53333333c0 65.5-53.3 118.9-118.9 118.9s-118.9-53.3-118.9-118.9c0-22.1-17.9-40-40-40s-40 17.9-40 40c0 109.7 89.2 198.9 198.9 198.9s198.9-89.2 198.9-198.9v-263.6c0-109.6-89.2-198.9-198.9-198.9zM511.3 12.733333339999945c-193.7 0-351.4 142.4-351.4 317.5 0 22.1 17.9 40 40 40s40-17.9 40-40c0-131 121.7-237.5 271.3-237.5S782.6 199.33333333999997 782.6 330.23333333999994c0 22.1 17.9 40 40 40s40-17.9 40-40c0.1-175.1-157.6-317.5-351.3-317.5zM511.3-68.86666665999996c-22.1 0-40 17.9-40 40v81.5c0 22.1 17.9 40 40 40s40-17.9 40-40v-81.5c0-22-17.9-40-40-40zM618.8-106.26666666000006h-215c-22.1 0-40 17.9-40 40s17.9 40 40 40h215c22.1 0 40-17.9 40-40s-17.9-40-40-40z"  horiz-adv-x="1024" />

    
    <glyph glyph-name="nav-video" unicode="&#58915;" d="M708.49422222 54.840888889999974H43.69066667c-23.32444445 0-42.21155555 18.88711111-42.21155556 42.21155556V381.952c0 23.32444445 18.88711111 42.21155555 42.21155556 42.21155555s42.21155555-18.88711111 42.21155555-42.21155555v-242.688h580.26666667V624.7537777800001h-580.26666667V564.90666667c0-23.32444445-18.88711111-42.21155555-42.21155555-42.21155556S1.47911111 541.58222222 1.47911111 564.90666667v102.05866666c0 23.32444445 18.88711111 42.21155555 42.21155556 42.21155556h664.68977778c23.32444445 0 42.21155555-18.88711111 42.21155555-42.21155556v-569.79911111c0.11377778-23.43822222-18.77333333-42.32533333-42.09777778-42.32533333zM978.37511111 53.93066667000005c-11.60533333 0-22.98311111 4.77866667-31.17511111 13.76711111L686.30755555 353.50755555c-14.67733333 16.15644445-14.67733333 40.73244445 0 56.8888889l260.89244445 285.80977777c11.71911111 12.85688889 30.15111111 17.18044445 46.42133333 10.92266667 16.27022222-6.25777778 26.96533333-21.95911111 26.96533334-39.36711111V96.14222222000001c0-17.408-10.69511111-33.10933333-26.96533334-39.36711111-5.00622222-1.82044445-10.12622222-2.84444445-15.24622222-2.84444444zM774.59911111 381.952l161.45066667-176.92444445v353.8488889L774.59911111 381.952zM522.92266667 184.20622221999997c-3.86844445 0-7.73688889 0.22755555-11.71911112 0.79644445-198.88355555 26.51022222-292.29511111 188.87111111-323.24266666 257.47911111-14.10844445 31.40266667-7.62311111 67.69777778 16.61155556 92.38755555l11.49155555 11.83288889c24.23466667 24.80355555 62.464 28.44444445 90.90844445 8.53333333l42.21155555-29.35466666c13.19822222-9.216 22.07288889-23.552 24.46222222-39.48088889 2.27555555-15.92888889-2.16177778-32.19911111-12.17422222-44.82844445L352.71111111 430.64888889c9.44355555-12.85688889 23.77955555-30.83377778 32.88177778-38.45688889 17.86311111-15.01866667 51.31377778-37.31911111 59.73333333-43.008 0.34133333-0.11377778 0.56888889-0.34133333 0.91022223-0.45511111 25.14488889 24.34844445 63.94311111 29.24088889 94.43555555 12.06044444l39.70844445-22.528c17.29422222-9.78488889 29.696-26.51022222 34.13333333-45.85244444 4.43733333-19.34222222 0.45511111-39.82222222-10.80888889-56.20622222l-10.69511111-15.47377778c-15.92888889-23.21066667-42.09777778-36.52266667-70.08711111-36.52266667zM245.76 468.53688889c26.624-58.93688889 106.496-198.42844445 273.86311111-220.72888889 8.87466667-1.024 16.72533333 2.27555555 21.39022222 8.98844445l10.69511112 15.47377777c1.59288889 2.27555555 1.47911111 4.55111111 1.25155555 6.144-0.34133333 1.47911111-1.25155555 3.52711111-3.64088889 4.89244445L509.72444445 305.83466667000005c-6.25777778 3.52711111-14.22222222 2.50311111-19.34222223-2.50311112l-4.32355555-4.20977777c-26.51022222-26.16888889-58.59555555-11.15022222-69.17688889-6.144l-3.98222223 2.16177777c-1.82044445 1.25155555-44.48711111 29.24088889-67.81155555 48.81066667-20.48 17.18044445-45.62488889 52.79288889-48.46933333 56.77511111l-4.20977778 8.41955556c-7.05422222 21.84533333-4.096 42.43911111 8.41955556 57.91288889l8.192 10.24-37.77422223 26.16888889c-3.072 2.048-7.05422222 1.70666667-9.55733333-0.91022222l-11.49155556-11.8328889c-6.144-6.144-7.73688889-14.79111111-4.43733333-22.18666666z"  horiz-adv-x="1024" />

    
    <glyph glyph-name="gonganbuxinxi" unicode="&#58927;" d="M512 864C247.04 864 32 648.96 32 384s215.04-480 480-480 480 215.04 480 480S776.96 864 512 864z m1.44-751.2h-20.16c-266.4 101.76-232.8 408.96-232.8 412.32l1.92 12.96h13.44c31.2 2.4 55.68 27.84 56.64 59.52v9.12l8.64 3.36 154.08 56.64h6.72c4.32 0 4.32 0 165.12-58.56l8.64-3.36v-9.6c0.96-31.2 25.44-57.12 56.64-59.52h13.44v-12.96l0.96 1.92c-0.48-2.88 33.12-310.56-233.28-411.84zM700.55 499.2c-34.65 7.65-60.75 35.55-66.6 70.2L501.65 618.45 369.35 569.4c-5.85-34.65-31.95-62.1-66.15-69.3-2.25-45.45 2.7-91.35 14.4-135.45 22.5-95.85 91.35-174.15 183.6-208.8h3.15l-1.8-0.9c199.8 78.3 200.7 292.95 198 344.25z m-123.75-113.4l17.55-103.95-92.25 49.05-92.25-49.05 17.55 103.95-74.25 73.8 103.05 15.3 45.9 94.95L548 474.9l103.05-15.3-74.25-73.8z"  horiz-adv-x="1024" />

    
    <glyph glyph-name="view" unicode="&#58951;" d="M512 569.344C409.6 569.344 326.144 486.4 326.144 384S409.6 198.656 512 198.656s185.856 82.944 185.856 185.344S614.4 569.344 512 569.344z m47.104-159.744c-33.792 0-61.44 27.648-61.44 61.44s27.648 61.44 61.44 61.44 61.44-27.648 61.44-61.44-27.136-61.44-61.44-61.44zM512 729.6C281.6 729.6 83.456 585.728 0 384c83.456-201.728 281.6-345.6 512-345.6s429.056 143.872 512 345.6c-82.944 201.728-281.6 345.6-512 345.6z m0-621.056c-192 0-358.4 112.128-435.2 275.456 76.8 163.328 243.2 275.456 435.2 275.456s358.4-112.128 435.2-275.456c-76.8-163.328-243.2-275.456-435.2-275.456z"  horiz-adv-x="1024" />

    
    <glyph glyph-name="time-out" unicode="&#59433;" d="M781.4 312.6c-104.4 0-189.6-87-189.6-192.6 0-106.8 84.6-192.6 189.6-192.6s189.6 86.4 189.6 192.6c0 106.8-84.6 192.6-189.6 192.6z m22.8-308.4c0-4.2-3.6-7.8-7.8-7.2h-31.2c-4.2 0-7.8 3.6-7.8 7.8v31.8c0 4.2 3.6 7.8 7.8 7.8h31.2c4.2 0 7.8-3.6 7.8-7.8v-32.4z m0.6 83.4c0-4.2-3.6-7.8-7.8-7.8h-32.4c-4.2 0-7.8 3.6-7.8 7.8l-7.2 136.2c0 4.2 3.6 8.4 7.8 8.4h47.4c4.2 0 7.8-3.6 7.8-8.4l-7.8-136.2z m-279.6 606h-36.6c-3 0-6-3-6-6l-18-301.8-123-142.8c-1.8-3-1.8-6.6 0.6-8.4l34.8-35.4c2.4-3 5.4-3 7.8-0.6l165.6 144-18 345c-0.6 3-3 6-7.2 6zM596 5.399999999999977c-28.2-6.6-57.6-10.2-88.2-10.2-210.6 0-381 173.4-381 386.4C126.8 595.2 297.2 768 507.8 768s381-173.4 381-386.4c0-25.8-2.4-51-7.2-75 22.2-13.2 42-30.6 58.2-51.6 11.4 40.2 17.4 82.8 17.4 127.2C957.2 635.4 755.6 840 506.6 840 257.6 840 56 635.4 56 382.20000000000005c0-252.6 201.6-457.8 450.6-457.8 49.8 0 97.8 8.4 142.8 23.4-21 16.2-39 35.4-53.4 57.6z"  horiz-adv-x="1024" />

    
    <glyph glyph-name="dianpu" unicode="&#58881;" d="M508.416 576.512c-102.912 0-186.368-83.456-186.368-186.368 0-102.912 83.456-186.368 186.368-186.368s186.368 83.456 186.368 186.368-83.456 186.368-186.368 186.368z m0-315.392c-71.168 0-129.024 57.856-129.024 129.024 0 71.168 57.856 129.024 129.024 129.024s129.024-57.856 129.024-129.024c0-70.656-57.856-129.024-129.024-129.024zM963.584 265.72799999999995l0.512 0.512c0.512 0.512 0.512 1.024 1.024 1.536 0 0.512 0.512 0.512 0.512 1.024s0.512 0.512 0.512 1.024 0.512 1.024 0.512 1.536c0 0.512 0 0.512 0.512 1.024 0 0.512 0.512 1.024 0.512 1.536v1.024c0 0.512 0.512 1.536 0.512 2.048 8.192 34.816 12.288 70.656 12.288 107.52s-4.096 72.704-12.288 107.52c0 0.512-0.512 1.536-0.512 2.048v1.024c0 0.512-0.512 1.024-0.512 1.536 0 0.512 0 0.512-0.512 1.024 0 0.512-0.512 1.024-0.512 1.536 0 0.512-0.512 1.024-0.512 1.024 0 0.512-0.512 0.512-0.512 1.024-0.512 0.512-0.512 1.024-1.024 1.536l-0.512 0.512-1.536 1.536-0.512 0.512-1.536 1.536-0.512 0.512c-0.512 0.512-1.024 1.024-1.536 1.024-0.512 0.512-1.024 0.512-1.536 1.024-0.512 0-0.512 0.512-1.024 0.512-0.512 0.512-1.024 0.512-1.536 1.024 0 0-0.512 0-0.512 0.512-0.512 0.512-1.024 0.512-2.048 1.024 0 0-0.512 0-0.512 0.512-0.512 0-1.024 0.512-1.536 0.512-0.512 0-0.512 0-1.024 0.512-0.512 0-1.024 0-1.024 0.512-0.512 0-1.024 0-1.536 0.512h-10.752c-61.44 0-111.616 50.176-111.616 111.616 0 22.016 6.144 43.008 17.92 60.928 0.512 1.024 1.024 2.048 1.536 3.584 0.512 0.512 0.512 1.024 1.024 1.536 0.512 1.024 0.512 2.048 1.024 3.072 0 1.024 0.512 1.536 0.512 2.56v2.048c0 1.024 0.512 2.048 0 3.072 0 1.024 0 2.048-0.512 2.56 0 1.024 0 2.048-0.512 2.56 0 1.024-0.512 2.048-1.024 3.072 0 0.512-0.512 1.536-0.512 2.048-0.512 0.512-0.512 1.536-1.024 2.048l-1.536 3.072c-0.512 0.512-1.024 1.024-1.024 1.536-1.024 1.024-1.536 2.048-2.56 3.072A469.5296 469.5296 0 0 1 646.656 834.56h-0.512c-0.512 0-1.024 0.512-1.536 0.512h-11.264c-0.512 0-1.024 0-1.536-0.512-0.512 0-1.024 0-1.024-0.512-0.512 0-1.024-0.512-1.536-0.512-0.512 0-1.024-0.512-1.024-0.512-0.512 0-1.024-0.512-1.536-0.512-0.512 0-1.024-0.512-1.024-0.512-0.512 0-1.024-0.512-1.024-0.512-0.512 0-1.024-0.512-1.024-0.512-0.512 0-0.512-0.512-1.024-0.512-0.512-0.512-1.024-0.512-1.024-1.024l-1.024-1.024-1.024-1.024-1.024-1.024-1.024-1.024-1.024-1.024-1.024-1.024c-0.512-0.512-0.512-1.024-1.024-1.536 0-0.512-0.512-0.512-0.512-1.024-0.512-0.512-0.512-1.024-1.024-1.536 0 0 0-0.512-0.512-0.512-18.432-38.912-57.344-64-100.864-64s-82.944 25.088-100.864 64c0 0 0 0.512-0.512 0.512 0 0.512-0.512 1.024-1.024 1.536 0 0.512-0.512 0.512-0.512 1.024-0.512 0.512-0.512 1.024-1.024 1.536 0 0.512-0.512 0.512-1.024 1.024l-1.024 1.024-1.024 1.024-1.024 1.024-1.024 1.024-1.024 1.024c-0.512 0.512-1.024 0.512-1.024 1.024-0.512 0-0.512 0.512-1.024 0.512-0.512 0.512-1.024 0.512-1.024 0.512-0.512 0-0.512 0.512-1.024 0.512s-1.024 0.512-1.024 0.512c-0.512 0-1.024 0.512-1.536 0.512-0.512 0-1.024 0.512-1.024 0.512-0.512 0-1.024 0.512-1.536 0.512-0.512 0-1.024 0-1.024 0.512-0.512 0-1.024 0-1.536 0.512h-11.264c-0.512 0-1.024 0-1.536-0.512h-0.512c-70.656-21.504-135.168-58.88-188.416-110.08v-0.512c-1.024-1.024-1.536-1.536-2.048-2.56-0.512-0.512-1.024-1.024-1.536-2.048-0.512-1.024-1.024-1.536-1.536-2.56-0.512-1.024-1.024-1.536-1.024-2.56-0.512-1.024-0.512-1.536-1.024-2.56s-0.512-2.048-1.024-2.56c0-1.024 0-2.048-0.512-2.56 0-1.024-0.512-2.048-0.512-2.56v-5.632c0-1.024 0.512-1.536 0.512-2.56 0.512-1.024 0.512-2.048 1.024-3.072 0.512-0.512 0.512-1.536 1.024-2.048l1.536-3.072v-0.512c12.288-17.92 18.432-39.424 18.432-61.952 0-61.44-50.176-111.616-111.616-111.616h-6.144-6.144c-0.512 0-1.024 0-1.536-0.512-0.512 0-1.024 0-1.536-0.512-0.512 0-1.024 0-1.024-0.512-0.512 0-1.024-0.512-1.536-0.512-0.512 0-0.512-0.512-1.024-0.512s-1.024-0.512-1.536-0.512c-0.512 0-0.512-0.512-1.024-0.512s-1.024-0.512-1.536-1.024c-0.512 0-0.512-0.512-1.024-0.512-0.512-0.512-1.024-0.512-1.024-1.024l-1.024-1.024-1.024-1.024-1.024-1.024-1.024-1.024c-0.512-0.512-0.512-1.024-1.024-1.024 0-0.512-0.512-0.512-0.512-1.024-0.512-0.512-0.512-1.024-1.024-1.024 0-0.512-0.512-0.512-0.512-1.024s-0.512-1.024-0.512-1.024c0-0.512-0.512-1.024-0.512-1.536 0-0.512-0.512-0.512-0.512-1.024s-0.512-1.024-0.512-1.536c0-0.512 0-0.512-0.512-1.024 0-0.512-0.512-1.024-0.512-1.536v-0.512C46.08 456.192 41.984 419.84 41.984 383.48800000000006s4.096-72.704 12.288-107.52v-0.512c0-0.512 0.512-1.024 0.512-1.536 0-0.512 0-0.512 0.512-1.024 0-0.512 0.512-1.024 0.512-1.536 0-0.512 0.512-0.512 0.512-1.024s0.512-1.024 0.512-1.536c0-0.512 0.512-1.024 0.512-1.024 0-0.512 0.512-0.512 0.512-1.024 0.512-0.512 0.512-1.024 1.024-1.024 0-0.512 0.512-0.512 0.512-1.024 0.512-0.512 0.512-1.024 1.024-1.024l1.024-1.024 1.024-1.024 1.024-1.024 1.024-1.024c0.512-0.512 1.024-0.512 1.024-1.024 0.512 0 0.512-0.512 1.024-0.512 0.512-0.512 1.024-0.512 1.536-1.024 0.512 0 0.512-0.512 1.024-0.512s1.024-0.512 1.536-0.512c0.512 0 0.512-0.512 1.024-0.512s1.024-0.512 1.536-0.512c0.512 0 1.024 0 1.024-0.512 0.512 0 1.024 0 1.536-0.512 0.512 0 1.024 0 1.536-0.512h11.776c61.44 0 111.616-50.176 111.616-111.616 0-22.528-6.656-43.52-18.432-61.952v-0.512l-1.536-3.072c-0.512-0.512-1.024-1.536-1.024-2.048-0.512-1.024-0.512-2.048-1.024-3.072 0-1.024-0.512-1.536-0.512-2.56v-5.632c0-1.024 0-2.048 0.512-2.56 0-1.024 0-2.048 0.512-2.56 0-1.024 0.512-2.048 1.024-2.56 0.512-1.024 0.512-1.536 1.024-2.56s1.024-1.536 1.024-2.56c0.512-1.024 1.024-1.536 1.536-2.56 0.512-0.512 1.024-1.024 1.536-2.048 0.512-1.024 1.536-1.536 2.048-2.56v-0.512c53.248-50.688 117.76-88.576 188.416-110.08h0.512c0.512 0 1.024-0.512 1.536-0.512H389.12c0.512 0 1.024 0 1.536 0.512 0.512 0 1.024 0 1.024 0.512 0.512 0 1.024 0.512 1.536 0.512 0.512 0 1.024 0.512 1.024 0.512 0.512 0 1.024 0.512 1.536 0.512 0.512 0 1.024 0.512 1.024 0.512 0.512 0 1.024 0.512 1.024 0.512 0.512 0 1.024 0.512 1.024 0.512 0.512 0 0.512 0.512 1.024 0.512 0.512 0.512 1.024 0.512 1.024 1.024l1.024 1.024 1.024 1.024 1.024 1.024 1.024 1.024 1.024 1.024 1.024 1.024c0.512 0.512 0.512 1.024 1.024 1.536 0 0.512 0.512 0.512 0.512 1.024 0.512 0.512 0.512 1.024 1.024 1.536 0 0 0 0.512 0.512 0.512 18.432 38.912 57.344 64 100.864 64s82.944-25.088 100.864-64c0 0 0-0.512 0.512-0.512 0-0.512 0.512-1.024 1.024-1.536 0-0.512 0.512-0.512 0.512-1.024 0.512-0.512 0.512-1.024 1.024-1.536 0-0.512 0.512-0.512 1.024-1.024l1.024-1.024 1.024-1.024 1.024-1.024 1.024-1.024 1.024-1.024c0.512-0.512 1.024-0.512 1.024-1.024 0.512 0 0.512-0.512 1.024-0.512 0.512-0.512 1.024-0.512 1.024-0.512 0.512 0 1.024-0.512 1.024-0.512 0.512 0 1.024-0.512 1.024-0.512 0.512 0 1.024-0.512 1.536-0.512 0.512 0 1.024-0.512 1.024-0.512 0.512 0 1.024-0.512 1.536-0.512 0.512 0 1.024 0 1.024-0.512 0.512 0 1.024 0 1.536-0.512h11.264c0.512 0 1.024 0 1.536 0.512h0.512c71.168 21.504 136.192 59.392 189.952 111.104 1.024 1.024 1.536 2.048 2.56 3.072 0.512 0.512 1.024 1.024 1.024 1.536l1.536 3.072c0.512 0.512 1.024 1.536 1.024 2.048 0.512 0.512 0.512 1.536 0.512 2.048 0.512 1.024 0.512 2.048 1.024 3.072 0 1.024 0 2.048 0.512 2.56 0 1.024 0.512 1.536 0.512 2.56v3.072 2.048c0 1.024-0.512 1.536-0.512 2.56-0.512 1.024-0.512 2.048-1.024 3.072 0 0.512-0.512 1.024-1.024 1.536-0.512 1.024-1.024 2.56-2.048 3.584-11.776 17.92-17.92 38.912-17.92 60.928 0 61.44 50.176 111.616 111.616 111.616h10.752c0.512 0 1.024 0 1.536 0.512 0.512 0 1.024 0 1.536 0.512 0.512 0 0.512 0 1.024 0.512 0.512 0 1.024 0.512 1.536 0.512 0 0 0.512 0 0.512 0.512 0.512 0.512 1.024 0.512 2.048 1.024 0 0 0.512 0 0.512 0.512 0.512 0.512 1.024 0.512 2.048 1.024 0.512 0 0.512 0.512 1.024 0.512 0.512 0.512 1.024 0.512 1.536 1.024 0.512 0.512 1.024 0.512 1.536 1.024 0.512 0 0.512 0.512 1.024 0.512l1.536 1.536 0.512 0.512c0 2.56 0.512 3.072 1.024 3.584z m-197.632-122.88c0-24.576 5.12-48.64 15.36-70.656-37.888-32.768-81.92-58.88-129.024-75.776-30.72 46.08-82.944 74.752-140.288 74.752s-109.056-28.672-140.288-74.752c-46.592 16.896-90.112 42.496-127.488 74.752 10.24 22.016 15.872 46.592 15.872 71.68 0 88.064-67.584 160.256-153.6 168.448-4.096 24.064-6.656 48.128-6.656 72.704s2.048 49.152 6.656 72.704c86.016 7.68 153.6 80.384 153.6 168.448 0 25.088-5.632 49.664-15.872 71.68 37.888 32.256 80.896 57.856 127.488 74.752 30.72-46.08 82.944-74.752 140.288-74.752s109.056 28.672 140.288 74.752c47.104-16.896 91.136-43.008 129.024-75.776-10.24-22.016-15.36-45.568-15.36-70.656 0-87.552 66.56-159.232 151.552-167.936 4.096-24.064 6.656-48.128 6.656-73.216 0-24.576-2.048-49.152-6.656-73.216-84.992-8.704-151.552-80.384-151.552-167.936z"  horiz-adv-x="1024" />

    
    <glyph glyph-name="close" unicode="&#58979;" d="M572.16 384l183.466667 183.04a42.666667 42.666667 0 1 1-60.586667 60.586667L512 444.16l-183.04 183.466667a42.666667 42.666667 0 0 1-60.586667-60.586667l183.466667-183.04-183.466667-183.04a42.666667 42.666667 0 0 1 0-60.586667 42.666667 42.666667 0 0 1 60.586667 0l183.04 183.466667 183.04-183.466667a42.666667 42.666667 0 0 1 60.586667 0 42.666667 42.666667 0 0 1 0 60.586667z"  horiz-adv-x="1024" />

    
    <glyph glyph-name="search" unicode="&#59018;" d="M883.626667 72.96l-145.066667 144.64A337.92 337.92 0 0 1 810.666667 426.666667a341.333333 341.333333 0 1 1-341.333334-341.333334 337.92 337.92 0 0 1 209.066667 72.106667l144.64-145.066667a42.666667 42.666667 0 0 1 60.586667 0 42.666667 42.666667 0 0 1 0 60.586667zM213.333333 426.666667a256 256 0 1 0 256-256 256 256 0 0 0-256 256z"  horiz-adv-x="1024" />

    
    <glyph glyph-name="chujingwancheng" unicode="&#58901;" d="M986.571034 154.482759L805.605517-46.609655l-114.582069 133.649655-40.253793-34.604138 153.776552-179.376552L1026.118621 119.172414zM209.743448 552.253793v-256.882759l252.645518-229.693793L715.034483 295.371034V552.253793l-18.184828 6.002759c-46.962759 15.536552-64.794483 83.508966-64.971034 84.03862l-4.943449 20.126897H297.842759l-4.943449-20.126897c-16.595862-66.030345-63.205517-83.508966-64.971034-84.03862l-18.184828-6.002759z m52.965518-35.663448c21.362759 12.182069 56.32 39.371034 75.387586 92.866207h249.114482c10.063448-26.129655 32.485517-70.973793 74.857932-93.572414v-197.031724L462.388966 137.357241 262.708966 318.852414v197.737931zM513.412414 380.645517l82.626207 60.027586h-102.046897l-31.602758 97.103449-31.426207-97.103449h-102.223449l82.626207-60.027586-31.602758-97.103448 82.626207 60.027586 82.626206-60.027586zM52.965517 790.068966h176.551724V843.034483H0v-900.413793h605.572414v52.965517H52.965517zM865.103448 212.744828h52.965518V843.034483H688.551724v-52.965517h176.551724zM653.241379 843.034483h-70.620689V896H335.448276v-52.965517h-70.62069v-88.275862h388.413793z"  horiz-adv-x="1026" />

    
    <glyph glyph-name="receipt" unicode="&#58998;" d="M817.472 393.6V820.3679999999999c0 24-19.632 43.632-43.632 43.632H75.632C51.632 864 32 844.368 32 820.3679999999999v-872.736c0-24 19.632-43.632 43.632-43.632h457.728c-27.408 47.808-43.104 103.296-43.104 162.384 0 180.72 146.496 327.216 327.216 327.216zM291.632 138.144H132.368c-11.712 0-21.168 14.736-21.168 32.928 0 9.12 2.352 17.328 6.192 23.28 3.84 5.952 9.12 9.648 14.976 9.648h159.264c11.712 0 21.168-14.736 21.168-32.928s-9.456-32.928-21.168-32.928z m100.176 145.632h-247.68c-18.192 0-32.928 14.736-32.928 32.928 0 9.072 3.696 17.28 9.648 23.232s14.16 9.648 23.28 9.648h247.68c18.192 0 32.928-14.736 32.928-32.88 0-18.192-14.736-32.928-32.928-32.928z m172.128 150.192c-34.752 71.616-108 114.24-184.992 113.28l8.16-59.904c1.104-8.16-1.68-16.32-7.44-22.08-0.768-0.768-1.632-1.488-2.496-2.16a26.1168 26.1168 0 0 0-25.968-3.552L139.184 546.384a26.1744 26.1744 0 0 0-16.032 20.736c-1.296 9.264 2.544 18.432 9.888 24.24l181.248 140.208a26.352 26.352 0 0 0 25.968 3.552c8.64-3.552 14.784-11.472 16.032-20.736l7.728-56.928c107.376 6.192 209.136-61.488 241.056-168.528 4.128-12.96 6.912-26.256 8.544-40.56 0.864-8.208-2.064-15.984-7.536-21.504-3.024-3.024-6.864-5.376-11.232-6.624-12.288-3.552-25.296 2.256-30.912 13.728zM666.5648-96h300.4032v25.032h-300.4032V-96z m307.7328 108.2832h-52.3152c-4.08 0.432-8.3568 2.952-12.0336 5.7984l-0.2976 0.1632a39.2496 39.2496 0 0 0-5.6064 5.1024c-0.9936 1.032-1.9872 2.0544-2.9136 3.12v0.0336c-1.5888 1.8192-3.216 3.6432-4.776 5.5344-31.0992 35.7072-10.9392 60.4416 11.136 94.1856 4.1808 4.8768 8.3232 9.7488 11.5056 15.6144 9.384 15.6144 14.6208 33.12 14.6208 52.6128 0 60.4368-52.1856 110.1024-117.9264 110.1024-64.7472-0.0384-117.9264-48.768-117.9264-110.1024 0-25.3632 9.384-48.7008 25.0656-67.2 25.032-36.9984 65.7456-67.1712 0-114.912h-62.664c-11.5056 0-17.7024-5.8704-17.7024-16.5456l-0.9264-41.7072H992v41.64c0 13.6416-3.0864 16.56-17.7024 16.56z"  horiz-adv-x="1024" />

    
    <glyph glyph-name="tingzhi" unicode="&#58880;" d="M512 384m-512 0a512 512 0 1 1 1024 0 512 512 0 1 1-1024 0ZM512 384m-341.333333 0a341.333333 341.333333 0 1 1 682.666666 0 341.333333 341.333333 0 1 1-682.666666 0Z"  horiz-adv-x="1024" />

    
    <glyph glyph-name="close-up" unicode="&#58918;" d="M140.3 297.6l346.8 392.8c14.3 16.2 39.5 16.2 53.8 0l346.8-392.8c20.4-23.2 4-59.6-26.9-59.6H167.2c-30.9 0-47.3 36.4-26.9 59.6zM883.8 159.29999999999995H144.2c-7.1 0-12.9-5.8-12.9-12.9v-70.3c0-7.1 5.8-12.9 12.9-12.9h739.7c7.1 0 12.9 5.8 12.9 12.9v70.3c-0.1 7.1-5.9 12.9-13 12.9z"  horiz-adv-x="1024" />

    
    </font>
</defs>
</svg>
